<svg width="1560" height="797" viewBox="0 0 1560 797" fill="none" xmlns="http://www.w3.org/2000/svg">
<path d="M1490.03 440.626L1485.14 479.519L1473.02 576.123H1229.49C1231.39 554.471 1233.99 523.306 1236.77 489.663C1237.04 486.303 1237.33 482.921 1237.6 479.519C1244.57 394.949 1252.19 299.248 1252.19 299.248L1284.21 305.212L1346.32 316.763L1371.64 321.467L1439.42 334.089C1473.21 340.368 1496.46 389.3 1490.03 440.626Z" fill="#F2F2F2"/>
<path d="M1305.82 142.75L1335.77 195.157L1278.21 235.949L1253.65 171.531L1305.82 142.75Z" fill="#FFB6B6"/>
<path d="M1267.69 192.329C1308.67 192.329 1341.89 159.113 1341.89 118.138C1341.89 77.1641 1308.67 43.9477 1267.69 43.9477C1226.72 43.9477 1193.5 77.1641 1193.5 118.138C1193.5 159.113 1226.72 192.329 1267.69 192.329Z" fill="#FFB6B6"/>
<path d="M1262.37 134.724C1256.48 125.759 1258.79 121.069 1253.86 117.774C1253.86 117.774 1251.87 116.449 1237.67 115.693C1234.49 92.8047 1230.52 90.029 1230.52 90.0289C1225.94 86.83 1219.15 87.8694 1214.93 89.8259C1205.99 93.9639 1207.03 102.902 1201.02 104.613C1192.71 106.976 1177.59 93.6553 1176.1 78.406C1174.88 65.9668 1182.9 53.8854 1186.08 54.5245C1189.23 55.1582 1196.77 45.525 1200.85 45.6736C1203.63 45.7751 1215 40.8339 1218.06 41.2202C1221.4 41.6421 1232.41 47.3888 1232.87 46.0758C1236.06 36.9522 1235.12 34.4208 1237.82 31.8107C1242.62 27.1856 1250.46 30.4064 1262.77 32.1355C1288.08 35.6931 1292.5 27.3453 1305.48 33.0035C1312.03 35.8618 1317.52 43.5702 1328.22 58.8702C1343.18 80.2672 1350.66 90.9657 1350.71 103.444C1350.76 116.17 1344.6 115.362 1341.89 134.201C1338.88 155.172 1345.28 164.761 1338.29 171.574C1332.88 176.84 1321.89 178.09 1316.12 173.469C1306.24 165.556 1319.17 146.464 1308.24 132.515C1301.52 123.953 1288.02 120.143 1281.84 124.376C1274.84 129.161 1278.69 143.208 1273.78 144.54C1269.57 145.681 1263.39 136.287 1262.37 134.724Z" fill="#2F2E41"/>
<path d="M1435.19 426.928C1433.12 462.311 1424.9 473.482 1422.02 515.268C1421.39 524.442 1421.02 535.091 1421.02 547.791C1421.02 551.029 1421.03 554.159 1421.03 557.217C1421.03 563.728 1420.91 569.881 1420.15 576.123C1419.58 581.105 1418.59 586.124 1416.95 591.413H1257.16C1257.14 591.377 1257.14 591.341 1257.12 591.305C1256.19 587.24 1255.6 583.354 1255.15 579.631C1255 578.443 1254.88 577.274 1254.77 576.123C1254.62 574.773 1254.5 573.443 1254.37 572.13C1253.89 566.895 1253.4 561.948 1252.25 557.217C1250.7 550.687 1247.9 544.535 1242.14 538.599C1239.78 536.171 1237.43 534.282 1235.13 532.628C1234.68 532.321 1234.24 532.015 1233.79 531.71C1227.43 527.338 1221.4 524.19 1216.18 515.268C1216.09 515.143 1216.02 514.999 1215.95 514.873C1215.05 513.308 1212.71 509.206 1211.02 503.738C1209.24 498.054 1208.16 490.912 1210.1 483.61C1214.73 466.305 1231.85 464.578 1245.85 447.093C1247.36 445.205 1248.85 443.118 1250.27 440.797C1256.6 430.508 1258.31 421.442 1260.33 410.667C1260.65 408.922 1260.94 407.195 1261.17 405.522C1261.35 404.263 1261.51 403.022 1261.64 401.798C1262.75 391.527 1262.22 382.677 1260.9 374.762C1256.62 348.841 1243.99 332.796 1252.92 309.537C1255.72 302.234 1259.7 296.747 1263.71 292.053C1272.2 282.105 1280.92 275.647 1279.41 262.804C1277.88 249.852 1268.06 248.071 1266.97 236.756C1266.41 231.037 1268.28 225.01 1271.79 219.092V219.075C1283.01 200.025 1311.04 182.486 1328.84 183.044C1332.14 183.134 1335.05 183.871 1337.48 185.292C1346.27 190.473 1342.61 201.787 1356.08 217.654C1366.1 229.435 1377.43 234.149 1381.73 236.379C1398.76 245.266 1412.62 271.474 1422.02 304.986C1422.09 305.238 1422.17 305.489 1422.24 305.76C1428.05 326.752 1432.15 350.586 1434.18 374.762C1435.05 384.998 1435.55 395.287 1435.66 405.468C1435.75 413.599 1435.57 420.651 1435.19 426.928Z" fill="#00ABD0"/>
<path d="M1315.53 548.151L1312.28 557.217L1310.23 562.901L1305.48 576.123L1299.97 591.413H1264.59L1270.53 576.123L1273.28 568.999L1277.85 557.217L1285.51 537.43L1315.53 548.151Z" fill="#FFB6B6"/>
<path d="M1422.58 301.892C1422.49 303.062 1422.37 304.356 1422.24 305.76C1420.84 320.042 1417.53 345.604 1412.69 374.762C1410.13 390.142 1407.15 406.53 1403.78 422.809C1396.55 457.94 1387.56 492.532 1377.4 515.268C1375.58 519.37 1373.71 523.076 1371.8 526.349C1370.34 528.85 1368.81 531.314 1367.21 533.742C1362.03 541.711 1356.22 549.267 1350.2 556.318C1349.96 556.624 1349.69 556.912 1349.42 557.217C1348.45 558.368 1347.44 559.502 1346.44 560.635C1341.51 566.193 1336.47 571.373 1331.6 576.123C1325.66 581.915 1319.94 587.042 1314.81 591.413H1257.36L1257.13 591.304L1248.85 587.635C1248.85 587.635 1251.21 584.865 1255.15 579.631C1255.96 578.569 1256.82 577.4 1257.76 576.122C1258.91 574.557 1260.15 572.83 1261.48 570.96C1264.25 567.039 1267.4 562.434 1270.78 557.217C1277.33 547.125 1284.79 534.714 1292.33 520.341C1293.19 518.668 1294.07 516.977 1294.96 515.268C1294.97 515.215 1295.01 515.16 1295.03 515.107C1296.52 512.192 1298 509.188 1299.47 506.13C1311.97 480.119 1315.55 458.533 1316.58 451.536C1318.02 441.643 1320.01 427.809 1319.47 412.591C1319.11 402.555 1317.66 391.941 1314.19 381.4V381.382C1313.47 379.17 1312.66 376.957 1311.74 374.762C1310.1 370.823 1308.16 366.937 1305.86 363.106C1295.69 346.233 1287.44 345.532 1280.87 327.147C1278.93 321.697 1274.52 309.393 1275.87 296.406V296.388C1276.03 294.787 1276.3 293.168 1276.66 291.548V291.531C1276.75 291.081 1276.88 290.614 1277 290.164C1278.03 286.189 1279.72 282.249 1282.29 278.507C1287.31 271.24 1294.16 266.923 1300.3 264.351L1300.32 264.332C1307.4 261.383 1313.52 260.753 1314.71 260.645C1340.99 258.307 1361.37 280.396 1372.5 292.466C1376.8 297.125 1380.74 301.029 1384.34 304.212C1412.35 329.217 1420.03 313.242 1422.02 304.986C1422.33 303.709 1422.49 302.612 1422.58 301.892Z" fill="#00ABD0"/>
<path d="M1422.67 300.957C1422.67 301.047 1422.65 301.352 1422.58 301.857C1422.62 301.586 1422.64 301.316 1422.65 301.064C1422.65 301.011 1422.65 300.975 1422.67 300.957Z" fill="#00ABD0"/>
<path d="M1279.81 680.526H315.55C306.591 680.526 299.288 687.811 299.288 696.77C299.288 705.746 306.591 713.031 315.55 713.031H1279.81C1288.77 713.031 1296.05 705.746 1296.05 696.77C1296.05 687.811 1288.77 680.526 1279.81 680.526Z" fill="#E6E6E6"/>
<path d="M1065.82 764.496H529.52C520.562 764.496 513.277 771.78 513.277 780.739C513.277 789.697 520.562 797 529.52 797H1065.82C1074.78 797 1082.08 789.697 1082.08 780.739C1082.08 771.78 1074.78 764.496 1065.82 764.496Z" fill="#E6E6E6"/>
<path d="M422.848 146.199L483.619 120.624L509.685 174.059L445.824 200.124L422.848 146.199Z" fill="#FFB6B6"/>
<path opacity="0.1" d="M422.848 146.199L483.619 120.624L509.685 174.059L445.824 200.124L422.848 146.199Z" fill="black"/>
<path d="M431.487 125.837L491.439 194.911C491.439 194.911 449.733 326.543 408.028 338.273C366.323 350.003 289.429 407.347 289.429 407.347L192.985 344.789L239.904 275.715C239.904 275.715 353.29 120.624 383.266 120.624C413.241 120.624 431.487 125.837 431.487 125.837Z" fill="#00ABD0"/>
<path d="M350.488 576.123H210.932L202.108 564.328L166.085 516.172L157.796 505.094C157.796 505.094 126.518 447.749 133.034 395.618C139.55 343.486 207.321 331.756 207.321 331.756H210.111L293.078 404.662L288.125 472.512L314.4 516.172L350.488 576.123Z" fill="#2F2E41"/>
<path d="M239.513 576.123H202.108V520.733L239.513 576.123Z" fill="#2F2E41"/>
<path d="M1046.27 492.035L1041.62 516.172L1030.07 576.123H798.103C799.914 562.686 802.39 543.345 805.036 522.467C805.297 520.381 805.57 518.283 805.831 516.172C812.465 463.688 819.724 404.297 819.724 404.297L850.221 407.999L909.39 415.167L933.501 418.086L998.066 425.919C1030.26 429.816 1052.4 460.183 1046.27 492.035Z" fill="#F2F2F2"/>
<path d="M1374.56 576.123H1248.74C1250.66 573.868 1251.74 572.565 1251.74 572.565L1289.46 566.335L1367.17 553.511C1367.17 553.511 1370.72 562.673 1374.56 576.123Z" fill="#2F2E41"/>
<path d="M840.869 172.267L895.586 249.648L800.142 252.499L789.897 179.778L840.869 172.267Z" fill="#A0616A"/>
<path opacity="0.1" d="M840.869 172.267L895.586 249.648L800.142 252.499L789.897 179.778L840.869 172.267Z" fill="black"/>
<path d="M571.029 332.596C564.008 312.343 547.867 299.548 534.978 304.018C522.09 308.489 517.336 328.528 524.362 348.788C527.058 356.919 531.662 364.287 537.788 370.274L568.619 455.712L608.404 440.389L573.787 357.789C574.893 349.292 573.947 340.653 571.029 332.596Z" fill="#A0616A"/>
<path d="M941.409 293.166L941.334 372.028L933.996 401.157L918.904 461.069L907.917 516.172L899.733 557.225L896.813 571.887C894.611 573.36 892.421 574.768 890.232 576.123H699.6C688.769 569.62 682.709 564.563 682.709 564.563C682.709 564.563 685.707 561.748 689.134 557.225C694.921 549.588 701.919 537.077 697.632 525.125C696.732 522.623 696.498 519.573 696.771 516.172C698.518 493.729 722.055 455.777 722.055 455.777L717.181 399.449L715.044 374.765L730.114 254.406L779.235 225.851L787.715 225.03L871.425 220.508L906.024 222.502L907.601 222.932L941.409 293.166Z" fill="#CCCCCC"/>
<path d="M945.125 576.123H903.42L901.583 557.225L901.543 556.848L913.351 556.039L944.07 553.941L944.604 565.254L945.021 573.934L945.125 576.123Z" fill="#FFB6B6"/>
<path d="M955.393 312.233L972.912 415.024L958.615 516.172L956.386 531.916L952.45 559.715L951.238 568.264L951.277 569.19L951.577 576.123H902.052L900.227 557.225L900.071 555.531L896.344 516.823L896.279 516.172L888.368 434.091L903.877 374.765L905.024 370.399V370.386L911.771 268.808L906.545 222.645L906.493 222.215C906.597 222.28 906.689 222.345 906.793 222.411C907.067 222.58 907.34 222.749 907.601 222.932C938.046 242.247 956.188 276.132 955.393 312.233Z" fill="#CCCCCC"/>
<path d="M747.856 274.102L728.811 254.404C728.811 254.404 688.041 272.784 686.009 282.981C683.977 293.177 611.994 442.942 611.994 442.942L580.677 359.299L539.912 386.516C539.912 386.516 572.622 516.376 603.212 522.472C633.803 528.569 736.328 368.77 736.328 368.77L747.856 274.102Z" fill="#CCCCCC"/>
<path d="M1521.16 515.268H38.0634C17.0713 515.268 0 532.357 0 553.349C0 574.341 17.0712 591.412 38.0634 591.412H1521.16C1542.15 591.412 1559.24 574.342 1559.24 553.349C1559.24 532.356 1542.15 515.268 1521.16 515.268Z" fill="#E6E6E6"/>
<path d="M932.729 399.23L929.845 533.786C929.566 546.812 918.927 557.225 905.899 557.225H658.376C645.656 557.225 635.154 547.282 634.46 534.581L627.104 400.025C626.354 386.303 637.278 374.765 651.02 374.765H908.782C922.211 374.765 933.016 385.804 932.729 399.23Z" fill="#3F3D56"/>
<path d="M533.144 178.679C565.85 178.679 592.364 152.166 592.364 119.459C592.364 86.7524 565.85 60.2384 533.144 60.2384C500.437 60.2384 473.923 86.7524 473.923 119.459C473.923 152.166 500.437 178.679 533.144 178.679Z" fill="#FFB6B6"/>
<path d="M434.094 274.412L440.61 344.789L484.922 523.34L446.639 536.758L381.962 342.183L373.029 263.985L434.094 274.412Z" fill="#FFB6B6"/>
<path d="M416.466 399.23L413.583 533.786C413.304 546.812 402.665 557.225 389.637 557.225H142.114C129.394 557.225 118.892 547.282 118.198 534.581L110.842 400.025C110.091 386.303 121.016 374.765 134.758 374.765H392.52C405.949 374.765 416.754 385.804 416.466 399.23Z" fill="#3F3D56"/>
<path d="M491.978 558.135C517.808 558.135 538.747 548.873 538.747 537.448C538.747 526.024 517.808 516.762 491.978 516.762C466.148 516.762 445.208 526.024 445.208 537.448C445.208 548.873 466.148 558.135 491.978 558.135Z" fill="#FFB6B6"/>
<path d="M342.212 285.172L368.929 142.78C368.929 142.78 443.217 132.353 445.823 157.116C448.43 181.878 443.961 302.896 443.961 302.896L342.212 285.172Z" fill="#00ABD0"/>
<path d="M509.239 128.77C509.239 128.77 545.872 115.696 561.325 108.661C576.778 101.627 607.478 150.693 608.161 124.779C608.844 98.8657 598.236 87.9986 598.236 87.9986C598.236 87.9986 595.587 31.3086 538.473 38.3962C538.473 38.3962 551.035 10.0335 509.798 5.64778C468.561 1.26202 404.406 100.843 410.152 115.725C415.897 130.607 422.785 142.91 406.484 158.822C390.184 174.734 359.66 264.538 382.884 288.703C406.107 312.869 407.631 323.355 391.719 338.389C375.808 353.423 338.197 386.112 378.863 391.787C419.529 397.462 375.142 393.224 405.46 366.556C435.777 339.889 480.016 340.978 463.498 298.193C446.979 255.408 475.678 194.096 472.087 184.795C468.496 175.494 480.132 116.431 480.132 116.431C480.132 116.431 507.214 112.452 509.239 128.77Z" fill="#2F2E41"/>
<path d="M811.614 200.275C847.217 200.275 876.08 171.412 876.08 135.809C876.08 100.205 847.217 71.3432 811.614 71.3432C776.01 71.3432 747.148 100.205 747.148 135.809C747.148 171.412 776.01 200.275 811.614 200.275Z" fill="#A0616A"/>
<path d="M816.757 49.1392C814.892 50.2281 812.393 48.5806 811.795 46.5051C811.197 44.4297 811.894 42.2261 812.585 40.1796L816.063 29.8775C818.53 22.571 821.148 15.0091 826.491 9.44794C834.554 1.05421 847.37 -1.08112 858.906 0.465847C873.721 2.45247 888.338 10.4746 895.227 23.7402C902.115 37.0058 899.183 55.5161 886.736 63.7925C904.475 84.1253 910.659 106.785 909.683 133.752C908.706 160.718 879.32 185.535 860.156 204.532C855.876 201.937 851.986 189.78 854.339 185.363C856.693 180.946 853.321 175.829 856.235 171.761C859.15 167.693 861.588 174.171 858.642 170.126C856.782 167.573 864.039 161.701 861.276 160.173C847.907 152.784 843.461 136.121 835.065 123.361C824.938 107.97 807.605 97.5471 789.263 95.8179C779.158 94.8654 768.486 96.5906 760.204 102.457C751.922 108.323 746.56 118.805 748.481 128.771C743.507 123.721 741.031 116.32 741.965 109.293C742.899 102.266 747.222 95.7687 753.342 92.1929C749.621 79.8864 752.809 65.7303 761.446 56.2071C770.084 46.6839 805.122 48.3059 817.733 50.8123L816.757 49.1392Z" fill="#2F2E41"/>
<path d="M818.717 96.1915C835.419 97.9945 847.478 112.462 857.661 125.823C863.53 133.523 869.678 142.028 869.531 151.709C869.382 161.497 862.837 169.893 859.71 179.169C854.597 194.331 859.58 212.37 871.749 222.759C859.725 225.041 846.726 216.025 844.65 203.963C842.233 189.921 852.877 176.369 851.617 162.177C850.506 149.673 840.653 140.05 832.276 130.702C823.899 121.353 816.032 108.947 819.886 97.0005L818.717 96.1915Z" fill="#2F2E41"/>
<path d="M1068.41 523.417C1051.86 532.826 1043.31 548.989 1049.3 559.517C1055.29 570.044 1073.55 570.948 1090.1 561.533C1096.76 557.862 1102.45 552.65 1106.68 546.332L1176.27 505.578L1156.45 473.329L1089.95 516.928C1082.36 517.339 1074.97 519.564 1068.41 523.417Z" fill="#FFB6B6"/>
<path d="M1304.03 224.567C1301.95 223.742 1283.7 216.832 1267.04 225.956C1247.91 236.436 1244.95 260.361 1243.92 268.752C1241.52 288.136 1248.58 292.481 1250.06 312.105C1252.85 348.819 1260.2 306.935 1248.46 323.694C1244.4 329.495 1202.92 419.388 1180.05 436.995C1135.56 471.24 1107.3 495.357 1107.3 495.357L1139.56 530.393C1139.56 530.393 1190.52 516.813 1235.57 487.563C1281.78 457.558 1304.89 442.556 1322.76 413.208C1324.3 410.681 1361.13 348.134 1341.35 278.972C1336.84 263.197 1328.57 234.292 1304.03 224.567Z" fill="#00ABD0"/>
<path d="M1470.58 399.23L1467.69 533.786C1467.41 546.812 1456.78 557.225 1443.75 557.225H1196.22C1183.5 557.225 1173 547.282 1172.31 534.581L1164.95 400.025C1164.2 386.303 1175.13 374.765 1188.87 374.765H1446.63C1460.06 374.765 1470.86 385.804 1470.58 399.23Z" fill="#3F3D56"/>
</svg>
