<svg width="529" height="361" viewBox="0 0 529 361" fill="none" xmlns="http://www.w3.org/2000/svg">
<path d="M71.2778 337.842C70.671 337.87 70.0702 337.71 69.5569 337.385C69.0436 337.059 68.6427 336.583 68.4083 336.022C68.1739 335.46 68.1175 334.84 68.2467 334.245C68.3759 333.65 68.6845 333.11 69.1305 332.696C69.2053 332.399 69.2589 332.185 69.3336 331.888C69.3068 331.823 69.28 331.758 69.2529 331.693C68.6415 330.246 67.6171 329.013 66.3083 328.147C64.9994 327.282 63.4645 326.823 61.8964 326.829C60.3283 326.835 58.7969 327.305 57.4945 328.18C56.1921 329.055 55.1768 330.297 54.5762 331.748C52.1758 337.541 49.1196 343.344 48.367 349.469C48.0356 352.177 48.1754 354.921 48.7802 357.581C43.1422 345.257 40.2146 331.863 40.1957 318.307C40.1945 314.905 40.3832 311.506 40.7607 308.125C41.0727 305.354 41.5056 302.602 42.0594 299.87C45.0812 285.046 51.5693 271.152 60.9907 259.328C65.5506 256.835 69.2383 253.002 71.5568 248.344C72.3967 246.67 72.9903 244.882 73.3192 243.037C72.8048 243.105 72.282 243.147 71.7677 243.181C71.6074 243.19 71.4388 243.198 71.2785 243.207L71.2181 243.209C70.6528 243.235 70.0922 243.096 69.6038 242.809C69.1154 242.523 68.72 242.101 68.4652 241.595C68.2105 241.088 68.1073 240.519 68.1679 239.955C68.2286 239.392 68.4506 238.857 68.8072 238.417C69.0293 238.143 69.2515 237.87 69.4739 237.596C69.8113 237.173 70.157 236.759 70.4943 236.337C70.5332 236.297 70.5698 236.254 70.6039 236.21C70.9919 235.729 71.3797 235.255 71.7677 234.774C71.0596 233.672 70.1072 232.75 68.9849 232.078C65.0974 229.797 59.7342 231.377 56.9261 234.901C54.1096 238.424 53.5784 243.367 54.5565 247.769C55.5184 251.515 57.1097 255.07 59.262 258.281C59.0511 258.551 58.8319 258.813 58.6211 259.083C54.7673 264.049 51.4085 269.381 48.5927 275.003C49.2775 268.704 48.4602 262.333 46.2082 256.413C43.9258 250.896 39.6477 246.25 35.8803 241.48C31.3551 235.751 22.0758 238.251 21.2785 245.514C21.2708 245.584 21.2633 245.654 21.2559 245.724C21.8155 246.041 22.3633 246.377 22.8992 246.732C23.5725 247.182 24.0942 247.826 24.3959 248.579C24.6977 249.332 24.7654 250.159 24.5903 250.951C24.4151 251.743 24.0053 252.464 23.4144 253.019C22.8235 253.573 22.0792 253.936 21.2789 254.06L21.1969 254.073C21.3963 256.094 21.7486 258.096 22.251 260.064C23.7066 265.556 26.2789 270.687 29.8065 275.136C33.3341 279.586 37.741 283.257 42.7508 285.919C43.0797 286.088 43.4002 286.257 43.7291 286.418C40.9001 294.451 39.1256 302.819 38.4502 311.311C38.0679 316.32 38.0904 321.353 38.5177 326.359L38.4924 326.182C37.4129 320.615 34.4493 315.592 30.1019 311.961C23.6449 306.646 14.5224 304.689 7.55649 300.417C6.81618 299.941 5.95537 299.687 5.07561 299.685C4.19585 299.682 3.33384 299.932 2.59122 300.405C1.8486 300.878 1.25634 301.553 0.884336 302.352C0.512327 303.151 0.37607 304.04 0.491629 304.914C0.500961 304.976 0.510472 305.038 0.520132 305.1C1.55854 305.524 2.56957 306.012 3.5474 306.562C4.10698 306.878 4.65476 307.214 5.19069 307.569C5.86398 308.02 6.38567 308.664 6.68742 309.417C6.98918 310.17 7.05691 310.996 6.88176 311.789C6.70662 312.581 6.29675 313.301 5.70587 313.856C5.11499 314.411 4.37065 314.774 3.57037 314.897L3.48837 314.91C3.42933 314.919 3.37874 314.927 3.3198 314.935C5.09407 319.18 7.5843 323.088 10.6815 326.486C14.5075 330.6 19.1318 333.887 24.2707 336.146C29.4097 338.406 34.9551 339.59 40.5668 339.625H40.5753C42.0986 346.258 44.3058 352.715 47.1613 358.89H70.6883C70.7727 358.629 70.8485 358.358 70.9245 358.096C68.7467 358.233 66.5604 358.103 64.4144 357.707C66.16 355.561 67.9055 353.398 69.6511 351.252C69.69 351.212 69.7266 351.169 69.7607 351.125C70.6461 350.027 71.54 348.937 72.4254 347.838L72.4259 347.837C72.4731 344.47 72.0875 341.111 71.2786 337.842L71.2778 337.842Z" fill="#F2F2F2"/>
<path d="M457.555 337.842C458.162 337.87 458.763 337.71 459.276 337.385C459.789 337.059 460.19 336.583 460.425 336.022C460.659 335.46 460.715 334.84 460.586 334.245C460.457 333.65 460.148 333.11 459.702 332.696C459.628 332.399 459.574 332.185 459.499 331.888C459.526 331.823 459.553 331.758 459.58 331.693C460.191 330.246 461.216 329.013 462.525 328.147C463.834 327.282 465.368 326.823 466.937 326.829C468.505 326.835 470.036 327.305 471.338 328.18C472.641 329.055 473.656 330.297 474.257 331.748C476.657 337.541 479.713 343.344 480.466 349.469C480.797 352.177 480.657 354.921 480.053 357.581C485.691 345.257 488.618 331.863 488.637 318.307C488.638 314.905 488.45 311.506 488.072 308.125C487.76 305.354 487.327 302.602 486.773 299.87C483.752 285.046 477.264 271.152 467.842 259.328C463.282 256.835 459.595 253.002 457.276 248.344C456.436 246.67 455.843 244.882 455.514 243.037C456.028 243.105 456.551 243.147 457.065 243.181C457.225 243.19 457.394 243.198 457.554 243.207L457.615 243.209C458.18 243.235 458.741 243.096 459.229 242.809C459.718 242.523 460.113 242.101 460.368 241.595C460.622 241.089 460.726 240.519 460.665 239.955C460.604 239.392 460.382 238.857 460.026 238.417C459.804 238.143 459.581 237.87 459.359 237.596C459.022 237.173 458.676 236.759 458.339 236.337C458.3 236.297 458.263 236.254 458.229 236.21C457.841 235.729 457.453 235.255 457.065 234.774C457.773 233.672 458.726 232.75 459.848 232.078C463.736 229.797 469.099 231.377 471.907 234.901C474.723 238.424 475.255 243.367 474.276 247.769C473.315 251.515 471.723 255.07 469.571 258.281C469.782 258.551 470.001 258.813 470.212 259.083C474.066 264.049 477.424 269.381 480.24 275.003C479.555 268.704 480.373 262.333 482.625 256.413C484.907 250.896 489.185 246.25 492.953 241.48C497.478 235.751 506.757 238.251 507.554 245.514C507.562 245.584 507.57 245.654 507.577 245.724C507.017 246.041 506.47 246.377 505.934 246.732C505.26 247.182 504.739 247.826 504.437 248.579C504.135 249.332 504.068 250.159 504.243 250.951C504.418 251.743 504.828 252.464 505.419 253.019C506.009 253.573 506.754 253.936 507.554 254.06L507.636 254.073C507.437 256.094 507.084 258.096 506.582 260.064C505.126 265.556 502.554 270.687 499.027 275.136C495.499 279.586 491.092 283.257 486.082 285.919C485.753 286.088 485.433 286.257 485.104 286.418C487.933 294.451 489.707 302.819 490.383 311.311C490.765 316.32 490.743 321.353 490.315 326.359L490.341 326.182C491.42 320.615 494.384 315.592 498.731 311.961C505.188 306.646 514.311 304.689 521.277 300.417C522.017 299.941 522.878 299.687 523.757 299.684C524.637 299.682 525.499 299.932 526.242 300.405C526.984 300.878 527.577 301.553 527.949 302.352C528.321 303.151 528.457 304.04 528.341 304.914C528.332 304.976 528.323 305.038 528.313 305.1C527.274 305.524 526.263 306.012 525.286 306.562C524.726 306.878 524.178 307.214 523.642 307.569C522.969 308.02 522.447 308.664 522.146 309.417C521.844 310.17 521.776 310.996 521.951 311.788C522.126 312.581 522.536 313.301 523.127 313.856C523.718 314.411 524.462 314.774 525.263 314.897L525.345 314.91C525.404 314.918 525.454 314.927 525.513 314.935C523.739 319.18 521.249 323.088 518.152 326.486C514.326 330.6 509.701 333.887 504.562 336.146C499.423 338.406 493.878 339.59 488.266 339.625H488.258C486.734 346.258 484.527 352.715 481.672 358.89H458.145C458.06 358.628 457.984 358.358 457.908 358.096C460.086 358.233 462.273 358.103 464.419 357.707C462.673 355.561 460.927 353.398 459.182 351.252C459.143 351.212 459.106 351.169 459.072 351.125C458.187 350.027 457.293 348.937 456.408 347.838L456.407 347.837C456.36 344.47 456.746 341.11 457.555 337.842Z" fill="#F2F2F2"/>
<path d="M166.228 348.349H171.924L174.635 326.334H166.228V348.349Z" fill="#9E616A"/>
<path d="M164.369 344.44L173.469 343.896V347.803L182.121 353.79C182.548 354.085 182.87 354.51 183.039 355.002C183.209 355.494 183.217 356.027 183.062 356.524C182.907 357.021 182.598 357.455 182.18 357.764C181.762 358.072 181.256 358.238 180.737 358.238H169.903L168.035 354.374L167.306 358.238H163.221L164.369 344.44Z" fill="#2F2E41"/>
<path d="M94.8374 343.5L100.13 345.611L110.773 326.162L102.963 323.046L94.8374 343.5Z" fill="#9E616A"/>
<path d="M94.5521 339.179L103.208 342.046L101.766 345.676L107.594 354.445C107.882 354.878 108.025 355.392 108 355.912C107.976 356.431 107.787 356.93 107.46 357.334C107.133 357.738 106.685 358.027 106.183 358.159C105.68 358.29 105.149 358.257 104.667 358.065L94.6008 354.05L94.2921 349.767L92.1883 353.088L88.3931 351.574L94.5521 339.179Z" fill="#2F2E41"/>
<path d="M154.746 282.841L145.248 238.426L130.416 287.775L106.93 334.57L106.806 334.819L99.3662 330.805C98.3163 311.804 100.81 293.999 109.93 278.429L114.249 235.694C114.381 234.234 117.603 199.952 127.803 193.873L130.791 187.048L160.503 179.695L160.611 179.817C163.469 183.034 165.356 186.998 166.054 191.248L174.932 245.142L174.938 245.172L172.557 282.768L175.813 338.236H164.031C156.742 324.493 153.647 306.028 154.746 282.841Z" fill="#2F2E41"/>
<path d="M299.859 101.603C299.859 114.226 318.567 136.395 322.67 124.46C327.694 109.848 338.41 100.585 345.481 101.603C357.951 103.398 335.268 78.7461 322.67 78.7461C316.62 78.7461 310.818 81.1542 306.541 85.4407C302.263 89.7271 299.859 95.5408 299.859 101.603Z" fill="#E6E6E6"/>
<path d="M295.068 30.0214C292.109 42.2919 305.281 52.8781 317.879 52.8781C320.874 52.8781 323.84 52.2869 326.608 51.1383C329.375 49.9896 331.89 48.306 334.008 46.1835C336.126 44.0611 337.807 41.5414 338.953 38.7683C340.099 35.9952 340.689 33.023 340.689 30.0214C340.689 17.398 323.709 18.3547 317.879 7.16467C311.204 -5.64539 301.427 3.64532 295.068 30.0214Z" fill="#E6E6E6"/>
<path d="M189.655 29.0611C189.655 35.1231 192.059 40.9368 196.336 45.2233C200.614 49.5097 206.416 51.9179 212.466 51.9179C225.064 51.9179 235.643 41.6792 235.277 29.0611C234.51 2.62764 224.29 -7.73025 212.466 6.20437C204.306 15.8215 189.655 16.4377 189.655 29.0611Z" fill="#E6E6E6"/>
<path d="M187.738 101.603C177.093 96.9915 195.582 120.623 210.549 124.46C222.754 127.588 233.36 114.226 233.36 101.603C233.36 98.6012 232.77 95.629 231.624 92.8559C230.477 90.0828 228.797 87.5631 226.679 85.4407C224.561 83.3182 222.046 81.6346 219.279 80.486C216.511 79.3373 213.545 78.7461 210.549 78.7461C197.951 78.7461 199.302 106.612 187.738 101.603Z" fill="#E6E6E6"/>
<path d="M320.118 19.6476H289.606C288.972 19.6476 288.344 19.7727 287.758 20.0159C287.172 20.259 286.64 20.6154 286.191 21.0647C285.743 21.514 285.387 22.0474 285.144 22.6344C284.902 23.2215 284.777 23.8506 284.777 24.486V55.0595C284.777 56.3428 285.286 57.5735 286.191 58.4809C287.097 59.3883 288.325 59.8981 289.606 59.8981H320.118C321.398 59.8981 322.627 59.3883 323.532 58.4809C324.438 57.5735 324.946 56.3428 324.946 55.0595V24.486C324.946 23.2028 324.438 21.9721 323.532 21.0647C322.627 20.1573 321.398 19.6476 320.118 19.6476ZM314.388 29.9696H310.889C308.5 29.9696 308.035 31.103 308.035 32.7765V36.3249H313.733L312.993 41.8964H308.025V56.4246C305.9 56.8241 303.72 56.8189 301.597 56.4093V41.8964H297.041V36.3249H301.682V32.2047C301.682 27.2791 305.097 24.5887 309.494 24.5887C311.608 24.5887 313.87 24.7477 314.388 24.8217V29.9696Z" fill="#00ABD0"/>
<path d="M243.796 19.6476H213.284C212.003 19.6476 210.775 20.1573 209.869 21.0647C208.964 21.9721 208.455 23.2028 208.455 24.486V55.0595C208.455 56.3428 208.964 57.5735 209.869 58.4809C210.775 59.3883 212.003 59.8981 213.284 59.8981H243.796C245.077 59.8981 246.305 59.3883 247.21 58.4809C248.116 57.5735 248.625 56.3428 248.625 55.0595V24.486C248.625 23.2028 248.116 21.9721 247.21 21.0647C246.305 20.1573 245.077 19.6476 243.796 19.6476ZM228.54 50.5063C226.421 50.5063 224.35 49.8768 222.589 48.6974C220.827 47.518 219.454 45.8416 218.643 43.8803C217.833 41.919 217.62 39.7609 218.034 37.6788C218.447 35.5967 219.467 33.6842 220.965 32.1831C222.463 30.682 224.372 29.6597 226.45 29.2456C228.528 28.8314 230.682 29.044 232.639 29.8564C234.596 30.6688 236.269 32.0445 237.446 33.8096C238.624 35.5747 239.252 37.6499 239.252 39.7728C239.252 42.6195 238.123 45.3496 236.114 47.3625C234.105 49.3754 231.381 50.5063 228.54 50.5063ZM240.591 29.0394C240.061 29.0394 239.543 28.882 239.103 28.5871C238.663 28.2923 238.319 27.8732 238.117 27.3829C237.914 26.8925 237.861 26.353 237.964 25.8325C238.068 25.312 238.323 24.8338 238.697 24.4586C239.072 24.0833 239.549 23.8277 240.068 23.7242C240.588 23.6206 241.126 23.6738 241.616 23.8769C242.105 24.08 242.523 24.4239 242.817 24.8652C243.112 25.3065 243.269 25.8253 243.269 26.356C243.269 27.0676 242.987 27.7502 242.484 28.2534C241.982 28.7566 241.301 29.0393 240.591 29.0394Z" fill="#00ABD0"/>
<path d="M327.469 91.8597C328.339 91.8658 329.197 92.0631 329.983 92.4375C330.769 92.812 331.463 93.3545 332.017 94.0269C332.571 94.6993 332.971 95.4852 333.189 96.3293C333.407 97.1734 333.438 98.055 333.279 98.9123L344.679 106.345L341.861 114.389L325.909 103.665C324.489 103.302 323.252 102.43 322.431 101.215C321.61 99.9986 321.263 98.5233 321.456 97.0681C321.648 95.6129 322.366 94.2789 323.475 93.319C324.583 92.359 326.004 91.8398 327.469 91.8597Z" fill="#FFB6B6"/>
<path d="M331.529 111.405L339.666 101.991L350.18 106.877L371.664 124.01C374.481 124.34 395.853 127.103 395.461 134.968C395.451 135.887 395.243 136.793 394.851 137.624C394.458 138.455 393.891 139.191 393.188 139.782C389.815 142.572 383.969 141.78 383.751 141.748L369.764 141.046C369.032 141.223 361.44 142.971 357.421 140.47C356.202 139.711 331.529 111.405 331.529 111.405Z" fill="#3F3D56"/>
<path d="M354.995 351.839L348.331 351.838L345.161 326.082H354.996L354.995 351.839Z" fill="#FFB6B6"/>
<path d="M356.694 358.312L335.206 358.311V358.038C335.206 355.816 336.087 353.684 337.656 352.113C339.224 350.541 341.352 349.658 343.57 349.658L347.495 346.674L354.819 349.658L356.695 349.658L356.694 358.312Z" fill="#2F2E41"/>
<path d="M428.14 346.612L421.716 348.39L411.816 324.409L421.297 321.786L428.14 346.612Z" fill="#FFB6B6"/>
<path d="M431.498 352.398L410.785 358.131L410.713 357.868C410.122 355.726 410.405 353.436 411.5 351.503C412.594 349.569 414.41 348.151 416.548 347.559L419.539 343.635L427.391 344.558L429.199 344.058L431.498 352.398Z" fill="#2F2E41"/>
<path d="M355.289 195.964L405.645 198.538L405.661 198.584C408.678 206.98 409.382 216.034 407.7 224.797L409.242 237.669L416.949 277.829L427.226 329.317C427.226 329.317 440.586 332.921 423.116 339.099C405.645 345.278 409.242 341.673 411.811 337.04C414.38 332.406 399.222 280.146 399.222 280.146L380.724 238.441L362.739 281.691L360.684 329.574C360.684 329.574 366.079 336.01 350.664 338.584C335.249 341.159 336.02 336.267 339.617 332.663C343.213 329.059 346.296 281.176 346.296 281.176L349.893 235.867C349.893 235.867 348.866 209.608 355.289 195.964Z" fill="#2F2E41"/>
<path d="M404.527 137.141L400.479 126.501L387.44 113.633L370.928 112.334L358.792 123.222L355.36 134.052C359.861 154.935 359.769 174.168 353.392 192.802C352.939 194.09 352.771 195.462 352.902 196.821C353.032 198.181 353.457 199.495 354.147 200.673C354.836 201.852 355.774 202.865 356.895 203.642C358.015 204.42 359.292 204.943 360.635 205.176C379.341 208.326 414.175 213.049 411.776 204.057C408.602 192.163 397.56 166.563 401.65 153.026C403.139 148.322 404.075 143.461 404.441 138.541L404.527 137.141Z" fill="#3F3D56"/>
<path d="M376.408 108.182C384.547 108.182 391.145 101.57 391.145 93.4146C391.145 85.259 384.547 78.6476 376.408 78.6476C368.269 78.6476 361.67 85.259 361.67 93.4146C361.67 101.57 368.269 108.182 376.408 108.182Z" fill="#FFB6B6"/>
<path d="M372.385 107.406L383.619 106.832C385.058 106.758 386.629 106.631 387.676 105.638C388.239 105.025 388.672 104.304 388.949 103.518C389.988 101.101 391.027 98.684 392.039 96.2555C393.438 92.8964 394.813 89.3496 394.456 85.7271C394.372 84.0728 393.68 82.5082 392.512 81.3354C391.917 80.7702 391.151 80.4187 390.335 80.3358C389.518 80.253 388.698 80.4434 388.001 80.8773C387.828 79.7315 387.397 78.6401 386.741 77.6857C386.085 76.7313 385.221 75.9389 384.214 75.3683C382.181 74.243 379.86 73.7498 377.546 73.9518C374.189 74.1687 370.984 75.4345 368.382 77.5712C367.65 78.2478 366.868 78.8684 366.043 79.4277C365.629 79.7056 365.162 79.8959 364.671 79.9868C364.18 80.0778 363.677 80.0675 363.19 79.9567C362.708 79.8277 362.289 79.5281 362.01 79.1135C361.732 78.6989 361.612 78.1973 361.674 77.7013C360.883 78.294 360.34 79.1608 360.152 80.1326C359.965 81.1044 360.145 82.1114 360.658 82.9573C360.075 83.2021 359.438 83.2916 358.81 83.2172C358.182 83.1428 357.584 82.9069 357.074 82.5325C356.528 82.8042 356.044 83.1873 355.654 83.6572C355.264 84.127 354.976 84.6734 354.809 85.2612C354.641 85.849 354.598 86.4653 354.683 87.0707C354.767 87.6761 354.976 88.2572 355.298 88.7768C355.619 89.2964 356.045 89.743 356.548 90.0881C357.052 90.4332 357.622 90.6691 358.221 90.7807C358.821 90.8924 359.438 90.8773 360.031 90.7364C360.625 90.5955 361.182 90.332 361.669 89.9627C362.35 90.9196 362.096 92.2199 362.008 93.3923C361.919 94.5646 362.233 96.0216 363.36 96.3456C364.885 96.7837 366.12 94.7264 367.707 94.7483C368.098 94.7802 368.475 94.9083 368.805 95.1214C369.135 95.3344 369.407 95.6258 369.598 95.9696C369.972 96.6606 370.228 97.4092 370.355 98.1846L372.385 107.342" fill="#2F2E41"/>
<path d="M297.14 130.901C291.528 130.905 286.037 129.274 281.334 126.207L278.967 124.665L281.772 124.977C282.507 125.059 283.299 125.107 284.125 125.119C287.906 125.121 291.609 124.031 294.788 121.979C292.899 121.568 291.149 120.671 289.712 119.376C288.276 118.08 287.202 116.431 286.596 114.592L286.245 113.507L287.362 113.727C287.869 113.827 288.384 113.885 288.901 113.9C287.131 112.988 285.645 111.605 284.606 109.904C283.568 108.202 283.016 106.248 283.011 104.253V103.104L284.01 103.546C284.602 103.88 285.229 104.147 285.879 104.343C284.34 102.612 283.384 100.44 283.148 98.134C282.911 95.8282 283.405 93.5062 284.56 91.4979L285.048 90.6547L285.66 91.4114C290.117 96.9381 296.504 100.561 303.527 101.545C303.72 101.573 303.916 101.558 304.102 101.503C304.289 101.447 304.461 101.351 304.607 101.222C304.756 101.092 304.876 100.932 304.958 100.751C305.04 100.571 305.082 100.375 305.082 100.177C305.066 98.0322 305.687 95.9313 306.867 94.1418C308.047 92.3522 309.731 90.9553 311.706 90.1289C313.682 89.3025 315.858 89.0842 317.957 89.5017C320.056 89.9193 321.984 90.9538 323.495 92.4733C325.562 92.0213 327.543 91.2415 329.365 90.1634L330.902 89.2515L330.341 90.9509C329.822 92.5273 328.952 93.9646 327.795 95.1534C328.821 94.8858 329.824 94.5368 330.795 94.1098L332.877 93.1927L331.623 95.0938C330.294 97.1109 328.633 98.8879 326.711 100.349V101.319C326.711 115.86 315.673 130.901 297.199 130.901L297.14 130.901Z" fill="#00ABD0"/>
<path d="M310.373 120.547C311.242 120.511 312.109 120.667 312.912 121.003C313.715 121.339 314.434 121.847 315.02 122.492C315.605 123.137 316.043 123.903 316.301 124.735C316.56 125.568 316.633 126.447 316.515 127.311L328.259 134.185L325.831 142.355L309.382 132.415C307.947 132.121 306.669 131.309 305.791 130.135C304.913 128.96 304.495 127.503 304.617 126.04C304.739 124.577 305.393 123.21 306.453 122.198C307.514 121.185 308.909 120.598 310.373 120.547Z" fill="#FFB6B6"/>
<path d="M324.202 146.197L315.43 136.685L321.511 127.576L328.064 133.086L335.229 134.804L345.34 138.645C346.748 136.178 357.669 117.564 364.735 121.011C365.575 121.38 366.325 121.927 366.934 122.615C367.543 123.302 367.996 124.114 368.262 124.993C369.5 129.197 366.48 134.275 366.365 134.463L360.234 147.08C360.109 147.823 358.735 155.507 354.863 158.23C354.315 158.631 353.691 158.914 353.029 159.06C352.367 159.207 351.682 159.214 351.017 159.082C338.983 156.801 330.504 153.275 326.177 148.789C325.414 148.01 324.751 147.139 324.202 146.197Z" fill="#3F3D56"/>
<path d="M168.172 109.425C166.821 106.515 168.964 103.266 169.729 100.133C171.156 94.2873 167.135 87.9584 161.685 85.9328C156.235 83.9073 149.972 85.6003 145.291 89.1447C140.701 92.6193 137.475 94.2562 134.314 99.1657C133.253 100.812 132.131 105.923 131.93 107.895C131.73 109.867 132.748 112.126 134.604 112.559C134.426 112.911 134.348 113.304 134.378 113.698C134.408 114.091 134.545 114.468 134.775 114.789C135.004 115.109 135.316 115.36 135.678 115.515C136.04 115.67 136.438 115.722 136.827 115.667C140.38 114.979 146.905 116.869 146.905 116.869C152.989 117.218 159.072 117.567 165.156 117.916C166.715 118.006 168.333 118.087 169.733 117.224C170.121 116.997 170.454 116.688 170.711 116.319C170.969 115.95 171.143 115.53 171.223 115.087C171.579 112.778 169.102 111.431 168.172 109.425Z" fill="#2F2E41"/>
<path d="M172.766 134.886L171.435 143.765L169.324 157.832L168.966 163.044L166.339 201.245L159.103 206.822C154.914 210.051 149.684 211.622 144.413 211.234C139.142 210.846 134.197 208.528 130.523 204.721L121.737 200.482C126.446 195.84 125.57 174.326 125.57 174.326L125.517 132.072L137.428 128.058L141.351 120.319H155.425L158.944 128.546L165.33 131.472L168.239 132.812L172.766 134.886Z" fill="#E6E6E6"/>
<path d="M148.969 116.351C155.541 116.351 160.869 111.012 160.869 104.427C160.869 97.8415 155.541 92.5031 148.969 92.5031C142.397 92.5031 137.069 97.8415 137.069 104.427C137.069 111.012 142.397 116.351 148.969 116.351Z" fill="#9E616A"/>
<path d="M142.171 100.687C139.027 100.692 135.958 99.7218 133.387 97.9098L133.301 97.8496C133.301 96.3265 133.6 94.8183 134.182 93.4112C134.764 92.004 135.616 90.7255 136.691 89.6485C137.766 88.5715 139.042 87.7172 140.446 87.1343C141.85 86.5515 143.356 86.2515 144.876 86.2515H149.6C151.11 86.2532 152.605 86.5533 153.999 87.1346C155.394 87.716 156.66 88.5671 157.725 89.6394C158.79 90.7116 159.634 91.9839 160.208 93.3833C160.782 94.7828 161.075 96.282 161.07 97.795C161.061 98.4857 160.782 99.1452 160.294 99.6332C159.806 100.121 159.148 100.399 158.458 100.408L142.442 100.684C142.352 100.686 142.261 100.687 142.171 100.687Z" fill="#2F2E41"/>
<path d="M177.004 159.4L166.225 159.488L165.433 178.712L156.675 189.456C155.61 189.635 154.615 190.107 153.8 190.818C152.985 191.528 152.382 192.451 152.058 193.484C151.733 194.516 151.7 195.619 151.962 196.669C152.223 197.719 152.769 198.677 153.54 199.436C154.311 200.195 155.276 200.725 156.328 200.969C157.381 201.213 158.48 201.16 159.505 200.817C160.53 200.474 161.44 199.854 162.135 199.025C162.83 198.197 163.283 197.191 163.444 196.121L175.509 179.363L177.004 159.4Z" fill="#9E616A"/>
<path d="M120.168 159.974L109.119 154.799L97.0532 169.766L83.6314 173.167C82.6689 172.676 81.5894 172.46 80.5123 172.545C79.4352 172.629 78.4024 173.011 77.5279 173.646C76.6534 174.282 75.9714 175.148 75.557 176.148C75.1427 177.147 75.0122 178.242 75.18 179.312C75.3478 180.381 75.8073 181.383 76.5078 182.208C77.2084 183.032 78.1226 183.646 79.1496 183.982C80.1765 184.318 81.2763 184.364 82.3273 184.113C83.3783 183.862 84.3397 183.325 85.1053 182.561L104.759 176.303L120.168 159.974Z" fill="#9E616A"/>
<path d="M154.924 115.43L159.044 110.28C159.489 109.829 159.779 109.247 159.871 108.62C159.892 107.99 159.3 107.316 158.703 107.513C158.149 107.697 154.956 99.6804 154.373 99.682C153.768 99.6838 153.57 98.8759 153.563 98.2699C153.534 95.9739 155.396 98.4394 156.012 96.2276C156.628 94.0158 159.028 95.9175 161.097 94.9297C163.166 93.9418 165.977 94.3905 167.256 96.296C168.204 97.7087 168.169 99.5444 168.043 101.242C167.751 105.182 167.159 109.094 166.273 112.944C166.056 113.89 165.732 114.947 164.862 115.374C164.383 115.564 163.867 115.641 163.354 115.6L157.011 115.568" fill="#2F2E41"/>
<path d="M164.809 93.2896C168.047 93.2896 170.673 90.6588 170.673 87.4136C170.673 84.1683 168.047 81.5375 164.809 81.5375C161.57 81.5375 158.944 84.1683 158.944 87.4136C158.944 90.6588 161.57 93.2896 164.809 93.2896Z" fill="#2F2E41"/>
<path d="M177.997 159.213C177.363 160.318 176.015 160.759 174.783 161.099C173.118 161.564 172.631 162.034 170.966 162.498C170.303 162.686 169.634 162.874 168.966 163.044C167.868 163.341 166.754 163.57 165.629 163.732C164.685 163.867 163.571 163.867 162.955 163.133C162.547 162.502 162.382 161.743 162.492 161C162.732 151.974 162.975 142.948 163.219 133.923L163.729 134.099C163.959 133.947 164.198 133.81 164.445 133.688C165.618 133.088 166.921 132.788 168.239 132.812C168.992 132.818 169.741 132.935 170.461 133.159C171.579 133.514 172.606 134.109 173.471 134.903C174.336 135.697 175.018 136.669 175.469 137.754C176.054 139.391 176.333 141.122 176.29 142.86C176.296 143.125 176.296 143.389 176.302 143.653C176.337 145.91 175.194 148.166 175.229 150.423C175.202 151.058 175.289 151.693 175.487 152.297C175.721 152.896 176.179 153.396 176.355 154.019C176.531 154.636 176.243 155.482 175.604 155.529C176.056 155.481 176.512 155.559 176.922 155.754C177.332 155.949 177.68 156.255 177.928 156.636C178.176 157.017 178.313 157.46 178.325 157.915C178.337 158.37 178.224 158.819 177.997 159.213Z" fill="#E6E6E6"/>
<path d="M125.567 132.123C126.74 132.193 127.883 132.523 128.914 133.087C129.945 133.651 130.839 134.436 131.532 135.387C132.225 136.337 132.701 137.429 132.924 138.585C133.148 139.741 133.114 140.931 132.825 142.072C132.212 143.979 131.248 145.753 129.984 147.304L126.043 152.801C125.643 153.294 125.335 153.855 125.135 154.458C124.969 155.081 125.034 155.757 124.807 156.36C124.58 156.964 123.848 157.47 123.305 157.124C123.697 157.355 124.017 157.689 124.23 158.091C124.443 158.493 124.542 158.946 124.514 159.4C124.487 159.854 124.335 160.292 124.075 160.665C123.815 161.038 123.457 161.331 123.041 161.513C121.871 162.025 120.527 161.568 119.336 161.111L114.495 159.255C112.774 158.64 111.097 157.907 109.475 157.063C108.637 156.602 107.743 155.938 107.683 154.982C107.637 154.238 108.265 153.667 108.579 152.991C112.521 144.535 118.318 137.806 125.518 132.072L125.567 132.123Z" fill="#E6E6E6"/>
<path d="M131.229 183.029C131.229 178.301 127.751 174.491 123.401 174.491C117.575 174.211 111.648 174.11 105.586 174.11H103.696C97.6465 174.11 91.6971 174.211 85.8819 174.491C81.5987 174.491 78.1208 178.312 78.1208 183.052C77.8524 186.806 77.7405 190.548 77.7517 194.257C77.7629 197.967 77.8524 201.754 78.1096 205.463C78.1096 210.203 81.5875 214.046 85.8707 214.046C91.9766 214.327 98.2503 214.45 104.625 214.45C110.999 214.45 117.262 214.338 123.39 214.046C127.684 214.046 131.218 210.203 131.218 205.463C131.464 201.709 131.587 197.967 131.576 194.201C131.565 190.437 131.475 186.716 131.229 182.996L131.229 183.029ZM99.5475 204.623V183.937L114.779 194.269L99.5475 204.623Z" fill="#00ABD0"/>
<path d="M528.026 360.499L0.973521 360.752C0.715065 360.751 0.467444 360.648 0.284952 360.464C0.10246 360.281 0 360.033 0 359.774C0 359.515 0.10246 359.266 0.284952 359.083C0.467444 358.899 0.715065 358.796 0.973521 358.795L528.026 358.543C528.285 358.543 528.533 358.647 528.715 358.83C528.898 359.014 529 359.262 529 359.521C529 359.78 528.898 360.028 528.715 360.212C528.533 360.395 528.285 360.499 528.026 360.499Z" fill="#CACACA"/>
</svg>
