<?xml version="1.0" encoding="UTF-8"?>
<svg id="Camada_1" data-name="Camada 1" xmlns="http://www.w3.org/2000/svg" viewBox="0 0 264.38 72.8">
  <defs>
    <style>
      .cls-1 {
        fill: #211f20;
      }

      .cls-2 {
        fill: #00aad0;
      }
    </style>
  </defs>
  <polygon class="cls-2" points="176.59 51.92 203.95 51.92 190.27 72.08 176.59 51.92"/>
  <path class="cls-1" d="m243.98,71.4V1.4h20.4v70h-20.4Zm-95.64,0L180.18,1.4h20.09l31.94,70h-21.23l-24.93-60.3h8.04l-24.94,60.3h-20.81Zm-46.8-15.7h39.05v15.7h-56.16v-12.4l27-24.5c1.92-1.73,3.35-3.27,4.28-4.6.93-1.33,1.55-2.55,1.85-3.65.31-1.1.46-2.12.46-3.05,0-2.27-.77-4.03-2.32-5.3-1.55-1.27-3.86-1.9-6.95-1.9-2.61,0-5.05.57-7.32,1.7-2.27,1.13-4.12,2.83-5.56,5.1l-15.15-8.2c2.68-4.4,6.56-7.93,11.64-10.6,5.08-2.67,11.16-4,18.24-4,5.56,0,10.44.87,14.63,2.6,4.19,1.73,7.47,4.2,9.84,7.4,2.37,3.2,3.55,6.97,3.55,11.3,0,2.27-.31,4.52-.93,6.75-.62,2.23-1.8,4.6-3.55,7.1-1.75,2.5-4.35,5.28-7.78,8.35l-21.43,19.2-3.4-7Zm-61.87,17.1c-5.7,0-10.97-.88-15.82-2.65-4.84-1.77-9.03-4.28-12.57-7.55-3.54-3.27-6.3-7.12-8.29-11.55-1.99-4.43-2.99-9.32-2.99-14.65s1-10.22,2.99-14.65c1.99-4.43,4.76-8.28,8.29-11.55,3.54-3.27,7.73-5.78,12.57-7.55,4.84-1.77,10.11-2.65,15.82-2.65,6.66,0,12.62,1.13,17.88,3.4,5.25,2.27,9.63,5.53,13.14,9.8l-12.98,11.4c-2.34-2.67-4.89-4.7-7.68-6.1-2.78-1.4-5.89-2.1-9.32-2.1-2.95,0-5.67.47-8.14,1.4-2.47.93-4.58,2.28-6.34,4.05-1.75,1.77-3.13,3.88-4.12,6.35-1,2.47-1.49,5.2-1.49,8.2s.5,5.73,1.49,8.2c1,2.47,2.37,4.58,4.12,6.35,1.75,1.77,3.86,3.12,6.34,4.05,2.47.93,5.19,1.4,8.14,1.4,3.43,0,6.54-.7,9.32-2.1,2.78-1.4,5.34-3.43,7.68-6.1l12.98,11.4c-3.5,4.2-7.88,7.45-13.14,9.75-5.25,2.3-11.21,3.45-17.88,3.45Z"/>
</svg>