<svg width="562" height="354" viewBox="0 0 562 354" fill="none" xmlns="http://www.w3.org/2000/svg">
<path d="M194.664 335.813C194.224 335.833 193.79 335.718 193.419 335.483C193.047 335.247 192.757 334.903 192.588 334.497C192.418 334.091 192.377 333.642 192.471 333.212C192.564 332.782 192.787 332.391 193.11 332.092L193.257 331.508C193.238 331.461 193.218 331.414 193.199 331.367C192.756 330.321 192.015 329.429 191.068 328.803C190.121 328.177 189.011 327.846 187.877 327.85C186.742 327.854 185.634 328.194 184.692 328.827C183.75 329.46 183.015 330.357 182.581 331.407C180.844 335.596 178.633 339.792 178.089 344.221C177.849 346.179 177.95 348.163 178.388 350.086C174.309 341.175 172.191 331.49 172.177 321.688C172.176 319.228 172.313 316.77 172.586 314.325C172.812 312.321 173.125 310.331 173.526 308.356C175.712 297.637 180.405 287.59 187.221 279.041C190.52 277.238 193.188 274.466 194.865 271.098C195.473 269.887 195.902 268.595 196.14 267.261C195.768 267.31 194.737 261.633 195.018 261.285C194.499 260.497 193.571 260.105 193.005 259.336C190.188 255.511 186.307 256.179 184.281 261.377C179.953 263.565 179.911 267.193 182.567 270.682C184.256 272.902 184.488 275.906 185.971 278.283C185.818 278.478 185.66 278.668 185.507 278.863C182.719 282.454 180.289 286.309 178.252 290.374C178.747 285.82 178.156 281.213 176.527 276.933C174.876 272.943 171.781 269.583 169.055 266.134C165.782 261.992 159.069 263.8 158.492 269.051C158.486 269.102 158.481 269.153 158.475 269.204C158.88 269.432 159.277 269.675 159.664 269.932C160.151 270.258 160.529 270.724 160.747 271.268C160.965 271.812 161.014 272.41 160.888 272.983C160.761 273.556 160.464 274.077 160.037 274.478C159.609 274.879 159.071 275.142 158.492 275.231L158.433 275.24C158.577 276.701 158.832 278.15 159.195 279.572C155.699 293.114 163.247 298.047 174.026 298.268C174.264 298.391 174.496 298.513 174.734 298.629C172.687 304.438 171.403 310.488 170.915 316.629C170.638 320.251 170.654 323.89 170.963 327.51L170.945 327.382C170.164 323.357 168.02 319.725 164.875 317.099C160.204 313.256 153.604 311.841 148.565 308.752C148.029 308.407 147.406 308.223 146.77 308.222C146.133 308.22 145.51 308.401 144.972 308.743C144.435 309.085 144.007 309.573 143.738 310.151C143.468 310.728 143.37 311.371 143.453 312.003C143.46 312.048 143.467 312.093 143.474 312.138C144.225 312.444 144.957 312.797 145.664 313.195C146.069 313.424 146.465 313.666 146.853 313.923C147.34 314.249 147.718 314.715 147.936 315.259C148.154 315.804 148.203 316.401 148.076 316.974C147.95 317.547 147.653 318.068 147.226 318.469C146.798 318.87 146.26 319.133 145.681 319.222L145.621 319.231C145.579 319.237 145.542 319.244 145.499 319.25C146.783 322.319 148.585 325.145 150.825 327.602C153.011 339.424 162.401 340.545 172.446 337.103H172.452C173.554 341.899 175.151 346.568 177.216 351.033H194.237C194.298 350.844 194.353 350.648 194.408 350.459C192.832 350.558 191.251 350.464 189.698 350.178C190.961 348.626 192.224 347.062 193.487 345.51C193.515 345.481 193.541 345.45 193.566 345.418C194.207 344.624 194.853 343.836 195.494 343.042L195.494 343.041C195.528 340.606 195.249 338.177 194.664 335.813Z" fill="#F2F2F2"/>
<path d="M401.344 178.571H13.0498C9.58999 178.567 6.27305 177.189 3.82661 174.739C1.38017 172.289 0.00399696 168.967 0 165.502V13.0697C0.00399696 9.6046 1.38017 6.28261 3.82661 3.83244C6.27305 1.38227 9.58999 0.00400306 13.0498 0H401.344C404.804 0.00400306 408.121 1.38227 410.567 3.83244C413.013 6.28261 414.39 9.6046 414.394 13.0697V165.502C414.39 168.967 413.013 172.289 410.567 174.739C408.121 177.189 404.804 178.567 401.344 178.571Z" fill="#F2F2F2"/>
<path d="M310.785 170.236H74.6857C57.0919 170.216 40.2244 163.207 27.7837 150.748C15.343 138.288 8.34505 121.395 8.3252 103.774V74.8046C8.34503 57.1839 15.3429 40.2906 27.7836 27.8308C40.2243 15.3711 57.0919 8.3624 74.6857 8.34241H339.711C357.304 8.36239 374.172 15.3711 386.613 27.8308C399.053 40.2906 406.051 57.1839 406.071 74.8046C406.043 100.106 395.994 124.362 378.131 142.253C360.268 160.144 336.048 170.207 310.785 170.236Z" fill="white"/>
<path d="M249.881 51.9786H93.816C92.9234 51.9786 92.0673 51.6235 91.4362 50.9914C90.805 50.3593 90.4504 49.5019 90.4504 48.608C90.4504 47.714 90.805 46.8567 91.4362 46.2245C92.0673 45.5924 92.9234 45.2373 93.816 45.2373H249.881C250.773 45.2373 251.629 45.5924 252.26 46.2245C252.892 46.8567 253.246 47.714 253.246 48.608C253.246 49.5019 252.892 50.3593 252.26 50.9914C251.629 51.6235 250.773 51.9786 249.881 51.9786Z" fill="#E6E6E6"/>
<path d="M328.883 87.9414H93.816C92.9234 87.9414 92.0673 87.5863 91.4362 86.9542C90.805 86.3221 90.4504 85.4647 90.4504 84.5707C90.4504 83.6768 90.805 82.8194 91.4362 82.1873C92.0673 81.5552 92.9234 81.2001 93.816 81.2001H328.883C329.776 81.2001 330.632 81.5552 331.263 82.1873C331.894 82.8194 332.249 83.6768 332.249 84.5707C332.249 85.4647 331.894 86.3221 331.263 86.9542C330.632 87.5863 329.776 87.9414 328.883 87.9414Z" fill="#E6E6E6"/>
<path d="M328.883 123.904H93.816C92.9234 123.904 92.0673 123.549 91.4362 122.917C90.805 122.285 90.4504 121.428 90.4504 120.534C90.4504 119.64 90.805 118.782 91.4362 118.15C92.0673 117.518 92.9234 117.163 93.816 117.163H328.883C329.776 117.163 330.632 117.518 331.263 118.15C331.894 118.782 332.249 119.64 332.249 120.534C332.249 121.428 331.894 122.285 331.263 122.917C330.632 123.549 329.776 123.904 328.883 123.904Z" fill="#E6E6E6"/>
<path d="M328.883 123.904H93.816C92.9234 123.904 92.0673 123.549 91.4362 122.917C90.805 122.285 90.4504 121.428 90.4504 120.534C90.4504 119.64 90.805 118.782 91.4362 118.15C92.0673 117.518 92.9234 117.163 93.816 117.163H328.883C329.776 117.163 330.632 117.518 331.263 118.15C331.894 118.782 332.249 119.64 332.249 120.534C332.249 121.428 331.894 122.285 331.263 122.917C330.632 123.549 329.776 123.904 328.883 123.904Z" fill="#E6E6E6"/>
<path d="M306.131 62.0453C308.283 50.2987 313.314 40.0141 322.157 31.6662C322.482 31.0517 323.037 30.5914 323.701 30.3863C324.364 30.1812 325.082 30.2481 325.696 30.5723L348.604 42.6938C349.218 43.0193 349.677 43.5753 349.882 44.2398C350.087 44.9043 350.02 45.623 349.696 46.2382L333.671 76.6174C333.345 77.2319 332.79 77.6922 332.127 77.8973C331.463 78.1024 330.746 78.0355 330.131 77.7113L307.223 65.5898C306.61 65.2643 306.15 64.7083 305.945 64.0438C305.741 63.3793 305.807 62.6606 306.131 62.0453Z" fill="#E6E6E6"/>
<path d="M312.729 53.7995C313.012 47.6678 317.477 41.0339 323.032 34.2689C323.336 33.6934 323.856 33.2624 324.478 33.0703C325.099 32.8782 325.771 32.9409 326.346 33.2445L346.034 43.6619C346.609 43.9668 347.039 44.4875 347.231 45.1098C347.423 45.7322 347.36 46.4053 347.057 46.9815L332.796 74.0148C332.492 74.5903 331.972 75.0214 331.35 75.2134C330.729 75.4055 330.057 75.3428 329.482 75.0392L317.286 68.5858C314.726 67.2278 312.809 64.9083 311.954 62.1362C311.1 59.3642 311.379 56.366 312.729 53.7995Z" fill="white"/>
<path d="M335.847 57.7116L320.473 49.6314C320.23 49.5022 320.047 49.2816 319.966 49.0179C319.884 48.7543 319.91 48.469 320.039 48.2247C320.167 47.9803 320.386 47.7967 320.649 47.714C320.912 47.6314 321.197 47.6564 321.441 47.7837L336.815 55.8639C337.058 55.9932 337.241 56.2137 337.322 56.4774C337.404 56.741 337.378 57.0263 337.25 57.2707C337.122 57.515 336.902 57.6986 336.639 57.7813C336.376 57.8639 336.091 57.8389 335.847 57.7116Z" fill="#00ABD0"/>
<path d="M326.51 46.3427L323.128 44.565C323.006 44.5016 322.898 44.4149 322.81 44.3096C322.722 44.2044 322.656 44.0827 322.614 43.9517C322.573 43.8206 322.559 43.6827 322.571 43.5459C322.583 43.4091 322.622 43.2761 322.686 43.1545C322.75 43.0328 322.837 42.925 322.942 42.8372C323.048 42.7493 323.169 42.6832 323.3 42.6426C323.431 42.602 323.569 42.5877 323.706 42.6005C323.842 42.6133 323.975 42.653 324.096 42.7174L327.478 44.495C327.722 44.6242 327.904 44.8448 327.986 45.1084C328.067 45.3721 328.041 45.6573 327.913 45.9017C327.785 46.1461 327.565 46.3297 327.302 46.4123C327.04 46.495 326.755 46.4699 326.51 46.3427Z" fill="#00ABD0"/>
<path d="M331.59 65.8342L316.217 57.754C315.973 57.625 315.79 57.4044 315.709 57.1406C315.627 56.8768 315.653 56.5914 315.781 56.3468C315.909 56.1023 316.129 55.9186 316.392 55.8361C316.655 55.7535 316.94 55.7788 317.185 55.9064L332.558 63.9866C332.802 64.1158 332.984 64.3364 333.066 64.6C333.147 64.8637 333.121 65.1489 332.993 65.3933C332.865 65.6377 332.646 65.8213 332.383 65.9039C332.12 65.9866 331.835 65.9615 331.59 65.8342Z" fill="#00ABD0"/>
<path d="M333.719 61.7729L318.345 53.6927C318.223 53.6293 318.115 53.5426 318.027 53.4373C317.939 53.3321 317.873 53.2104 317.831 53.0794C317.79 52.9483 317.776 52.8104 317.788 52.6736C317.8 52.5368 317.839 52.4038 317.903 52.2821C317.967 52.1605 318.054 52.0527 318.159 51.9649C318.265 51.877 318.386 51.8109 318.517 51.7703C318.648 51.7297 318.786 51.7154 318.923 51.7282C319.059 51.741 319.192 51.7807 319.313 51.845L334.687 59.9253C334.93 60.0545 335.113 60.275 335.194 60.5387C335.276 60.8023 335.25 61.0876 335.121 61.332C334.993 61.5764 334.774 61.76 334.511 61.8426C334.248 61.9252 333.963 61.9002 333.719 61.7729Z" fill="#00ABD0"/>
<path d="M471.784 268.202H463.832C463.456 268.202 463.084 268.276 462.736 268.42C462.389 268.564 462.073 268.776 461.807 269.042C461.541 269.308 461.33 269.624 461.186 269.972C461.043 270.32 460.969 270.693 460.969 271.07C460.969 271.83 460.667 272.56 460.13 273.098C459.593 273.635 458.865 273.938 458.105 273.938H431.594C431.218 273.938 430.846 273.863 430.498 273.719C430.151 273.575 429.835 273.364 429.569 273.098C429.303 272.831 429.092 272.515 428.948 272.167C428.805 271.819 428.731 271.446 428.731 271.07L428.206 268.163L423.401 262.027C423.243 261.822 423.041 261.658 422.809 261.545C422.578 261.432 422.323 261.375 422.065 261.377H413.053C412.603 261.378 412.172 261.557 411.854 261.875C411.536 262.194 411.357 262.626 411.356 263.077L411.17 268.163H407.763C407.047 268.163 406.339 268.304 405.678 268.578C405.016 268.852 404.416 269.254 403.91 269.761C403.404 270.268 403.002 270.869 402.729 271.532C402.455 272.194 402.314 272.903 402.314 273.62V309.165C402.314 309.801 402.439 310.43 402.682 311.018C402.925 311.606 403.281 312.139 403.73 312.589C404.179 313.039 404.712 313.396 405.299 313.639C405.886 313.882 406.514 314.008 407.149 314.008H471.784C473.066 314.006 474.295 313.495 475.201 312.587C476.107 311.679 476.617 310.448 476.618 309.165V273.044C476.618 272.408 476.493 271.778 476.25 271.191C476.007 270.603 475.651 270.07 475.202 269.62C474.754 269.17 474.221 268.814 473.634 268.57C473.047 268.327 472.419 268.202 471.784 268.202Z" fill="#F2F2F2"/>
<path d="M428.209 268.031H411.356V262.945C411.356 262.495 411.536 262.063 411.854 261.744C412.172 261.425 412.603 261.246 413.053 261.246H422.065C422.323 261.243 422.577 261.301 422.809 261.414C423.041 261.526 423.243 261.691 423.401 261.895L428.209 268.031Z" fill="#E6E6E6"/>
<path d="M436.838 310.096H408.698C407.807 310.095 406.953 309.741 406.323 309.11C405.693 308.479 405.339 307.624 405.338 306.731V299.024C405.339 298.132 405.693 297.277 406.323 296.646C406.953 296.015 407.807 295.66 408.698 295.659H442.472C443.363 295.66 444.217 296.015 444.847 296.646C445.477 297.277 445.831 298.132 445.832 299.024V301.088C445.83 303.477 444.881 305.766 443.195 307.455C441.509 309.144 439.222 310.094 436.838 310.096Z" fill="white"/>
<path d="M416.799 301.473H409.853C409.401 301.473 408.968 301.293 408.648 300.973C408.329 300.653 408.149 300.219 408.149 299.767C408.149 299.314 408.329 298.88 408.648 298.56C408.968 298.24 409.401 298.061 409.853 298.061H416.799C417.25 298.061 417.684 298.24 418.003 298.56C418.323 298.88 418.502 299.314 418.502 299.767C418.502 300.219 418.323 300.653 418.003 300.973C417.684 301.293 417.25 301.473 416.799 301.473Z" fill="#F2F2F2"/>
<path d="M440.387 306.854H409.853C409.629 306.855 409.407 306.811 409.2 306.725C408.993 306.64 408.805 306.514 408.646 306.356C408.487 306.197 408.362 306.009 408.276 305.802C408.19 305.595 408.146 305.372 408.146 305.148C408.146 304.924 408.19 304.701 408.276 304.494C408.362 304.287 408.487 304.099 408.646 303.94C408.805 303.782 408.993 303.656 409.2 303.571C409.407 303.485 409.629 303.441 409.853 303.442H440.387C440.839 303.442 441.273 303.622 441.592 303.942C441.912 304.262 442.091 304.695 442.091 305.148C442.091 305.601 441.912 306.035 441.592 306.354C441.273 306.674 440.839 306.854 440.387 306.854Z" fill="#F2F2F2"/>
<path d="M500.034 307.2H492.082C491.706 307.2 491.334 307.274 490.986 307.418C490.639 307.562 490.323 307.774 490.057 308.04C489.792 308.306 489.581 308.622 489.437 308.97C489.293 309.318 489.219 309.691 489.219 310.068C489.219 310.828 488.917 311.558 488.38 312.095C487.843 312.633 487.115 312.935 486.355 312.935H459.844C459.468 312.935 459.096 312.861 458.748 312.717C458.401 312.573 458.085 312.362 457.819 312.095C457.554 311.829 457.343 311.513 457.199 311.165C457.055 310.817 456.981 310.444 456.981 310.068L456.457 307.161L451.651 301.025C451.494 300.82 451.291 300.655 451.059 300.543C450.828 300.43 450.573 300.373 450.316 300.375H441.303C440.853 300.375 440.422 300.555 440.104 300.873C439.786 301.192 439.607 301.624 439.606 302.075L439.42 307.161H436.013C435.298 307.161 434.589 307.302 433.928 307.576C433.267 307.85 432.666 308.252 432.16 308.759C431.654 309.266 431.253 309.867 430.979 310.529C430.705 311.192 430.564 311.901 430.564 312.618V348.163C430.564 348.799 430.689 349.428 430.932 350.016C431.175 350.604 431.531 351.137 431.98 351.587C432.429 352.037 432.962 352.394 433.549 352.637C434.136 352.88 434.765 353.006 435.4 353.006H500.034C501.316 353.004 502.545 352.493 503.451 351.585C504.358 350.677 504.867 349.446 504.869 348.163V312.042C504.869 311.406 504.744 310.776 504.501 310.189C504.258 309.601 503.902 309.068 503.453 308.618C503.004 308.168 502.471 307.812 501.884 307.568C501.298 307.325 500.669 307.2 500.034 307.2Z" fill="#F2F2F2"/>
<path d="M456.459 307.029H439.606V301.943C439.607 301.493 439.786 301.061 440.104 300.742C440.422 300.423 440.853 300.244 441.303 300.244H450.316C450.573 300.241 450.828 300.299 451.059 300.412C451.291 300.524 451.493 300.689 451.651 300.893L456.459 307.029Z" fill="#E6E6E6"/>
<path d="M465.088 349.094H436.948C436.057 349.093 435.203 348.738 434.574 348.108C433.944 347.477 433.589 346.622 433.588 345.729V338.022C433.589 337.13 433.944 336.274 434.574 335.644C435.203 335.013 436.057 334.658 436.948 334.657H470.723C471.613 334.658 472.467 335.013 473.097 335.644C473.727 336.274 474.081 337.13 474.082 338.022V340.086C474.08 342.474 473.131 344.764 471.445 346.453C469.759 348.142 467.473 349.092 465.088 349.094Z" fill="white"/>
<path d="M445.048 340.471H438.102C437.65 340.471 437.217 340.291 436.898 339.971C436.578 339.651 436.399 339.217 436.399 338.765C436.399 338.312 436.578 337.878 436.898 337.558C437.217 337.238 437.65 337.058 438.102 337.058H445.048C445.5 337.058 445.933 337.238 446.253 337.558C446.572 337.878 446.751 338.312 446.751 338.765C446.751 339.217 446.572 339.651 446.253 339.971C445.933 340.291 445.5 340.471 445.048 340.471Z" fill="#F2F2F2"/>
<path d="M468.637 345.852H438.102C437.878 345.853 437.656 345.809 437.449 345.723C437.242 345.638 437.054 345.512 436.895 345.354C436.737 345.195 436.611 345.007 436.525 344.8C436.439 344.592 436.395 344.37 436.395 344.146C436.395 343.922 436.439 343.699 436.525 343.492C436.611 343.285 436.737 343.097 436.895 342.938C437.054 342.78 437.242 342.654 437.449 342.569C437.656 342.483 437.878 342.439 438.102 342.44H468.637C469.088 342.44 469.522 342.619 469.841 342.939C470.161 343.259 470.34 343.693 470.34 344.146C470.34 344.598 470.161 345.032 469.841 345.352C469.522 345.672 469.088 345.852 468.637 345.852Z" fill="#F2F2F2"/>
<path d="M373.71 339.622L367.144 339.621L364.02 314.256H373.711L373.71 339.622Z" fill="#FFB6B6"/>
<path d="M353.891 349.324C353.894 350.061 354.187 350.767 354.707 351.288C355.227 351.81 355.931 352.105 356.666 352.109H369.027L369.41 351.314L371.158 347.701L371.835 351.314L371.985 352.109H376.647L376.581 351.309L375.337 336.378L373.711 336.278L366.685 335.861L364.958 335.755V340.214C363.648 341.609 353.369 346.884 353.891 349.324Z" fill="#2F2E41"/>
<path d="M482.424 288.831L479.25 294.588L455.568 285.069L460.252 276.572L482.424 288.831Z" fill="#FFB6B6"/>
<path d="M481.327 310.897C481.973 311.25 482.731 311.334 483.438 311.131C484.145 310.927 484.744 310.452 485.103 309.81L491.076 298.972L490.567 298.252L488.253 294.973L491.739 296.125L492.506 296.378L494.759 292.29L494.027 291.962L480.375 285.836L479.501 287.214L475.741 293.173L474.815 294.636L478.712 296.79C479.298 298.613 478.942 310.175 481.327 310.897Z" fill="#2F2E41"/>
<path d="M384.696 172.444L409.506 182.994C409.506 182.994 417.444 199.966 411.954 202.398V247.266L468.623 280.112L451.542 308.687C451.542 308.687 429.617 303.016 429.846 297.838C430.075 292.659 432.603 290.611 425.075 289.946C417.547 289.281 413.283 289.836 413.488 285.216C413.693 280.595 386.901 256.568 386.901 256.568L384.696 172.444Z" fill="#2F2E41"/>
<path d="M390.64 181.058L384.349 173.979C384.349 173.979 370.22 197.215 370.273 201.987C370.326 206.76 358.28 231.372 358.28 231.372L343.343 319.201C343.343 319.201 372.154 326.06 374.372 326.25C376.59 326.44 380.331 327.611 377.979 323.165C375.627 318.719 377.979 318.719 377.979 318.719L379.425 251.096L390.64 204.586V181.058Z" fill="#2F2E41"/>
<path d="M387.342 113.02L399.388 110.124L406.354 118.682C409.533 121.677 411.903 125.43 413.244 129.59C414.585 133.751 414.852 138.184 414.021 142.475L407.579 175.755C407.579 175.755 419.143 186.372 417.698 192.163C415.353 201.555 389.497 193.261 385.046 193.919C380.596 194.576 374.814 187.364 373.85 183.249C372.886 179.133 376.817 169.256 378.186 169.482C379.556 169.707 374.408 149.05 374.408 149.05C374.408 149.05 374.814 135.218 379.632 131.358C382.587 128.948 384.992 125.931 386.685 122.512L387.342 113.02Z" fill="#00ABD0"/>
<path d="M335.042 60.8418C335.051 61.6531 335.237 62.4527 335.585 63.1853C335.933 63.9179 336.436 64.566 337.059 65.0847C337.682 65.6035 338.41 65.9806 339.192 66.1899C339.975 66.3992 340.794 66.4357 341.592 66.2969L356.755 89.728L364.258 87.1208L346.045 59.4233C345.711 58.0951 344.903 56.9354 343.774 56.1641C342.644 55.3927 341.271 55.0632 339.914 55.2381C338.558 55.4129 337.313 56.0799 336.415 57.1127C335.517 58.1455 335.029 59.4724 335.042 60.8418Z" fill="#FFB6B6"/>
<path d="M395.847 142.525C395.847 142.525 401.558 130.28 397.214 124.838C392.871 119.395 389.697 113.862 387.266 112.364C384.836 110.865 375.148 93.5119 372.707 92.9936C370.265 92.4754 372.162 89.6621 368.753 88.1523C365.344 86.6424 364.365 86.6311 364.376 85.6508C364.388 84.6705 356.063 72.8987 356.063 72.8987L347.507 78.2182L368.409 121.044L395.847 142.525Z" fill="#00ABD0"/>
<path d="M341.901 257.116C330.954 242.534 324.627 226.227 324.42 207.636C324.067 206.634 324.126 205.533 324.583 204.574C325.04 203.615 325.858 202.877 326.857 202.522L364.169 189.3C365.169 188.946 366.269 189.005 367.226 189.463C368.183 189.92 368.92 190.739 369.275 191.74L386.756 241.221C387.109 242.223 387.05 243.324 386.593 244.283C386.136 245.241 385.318 245.979 384.319 246.335L347.007 259.557C346.007 259.91 344.907 259.852 343.95 259.394C342.993 258.936 342.256 258.117 341.901 257.116Z" fill="#E6E6E6"/>
<path d="M339.483 241.157C332.899 234.49 330.081 222.599 328.244 209.346C327.914 208.408 327.969 207.377 328.397 206.479C328.825 205.581 329.591 204.89 330.527 204.557L362.593 193.194C363.53 192.863 364.56 192.918 365.456 193.346C366.353 193.775 367.043 194.542 367.375 195.479L382.931 239.51C383.261 240.449 383.207 241.48 382.779 242.378C382.351 243.276 381.585 243.967 380.648 244.3L360.784 251.339C356.611 252.813 352.024 252.568 348.031 250.659C344.038 248.75 340.963 245.333 339.483 241.157Z" fill="white"/>
<path d="M367.805 219.199L342.826 228.129C342.429 228.271 341.991 228.249 341.61 228.068C341.228 227.887 340.934 227.562 340.793 227.164C340.651 226.765 340.673 226.327 340.853 225.945C341.034 225.563 341.359 225.269 341.756 225.127L366.735 216.197C366.932 216.127 367.141 216.096 367.349 216.106C367.558 216.117 367.763 216.168 367.952 216.258C368.14 216.347 368.31 216.473 368.45 216.629C368.59 216.784 368.699 216.965 368.769 217.162C368.839 217.359 368.87 217.568 368.86 217.777C368.849 217.986 368.798 218.191 368.708 218.381C368.619 218.57 368.493 218.739 368.338 218.88C368.183 219.02 368.002 219.129 367.805 219.199Z" fill="#00ABD0"/>
<path d="M345.388 217.933L339.892 219.897C339.495 220.038 339.058 220.016 338.678 219.835C338.297 219.653 338.004 219.328 337.862 218.931C337.72 218.533 337.742 218.096 337.922 217.714C338.102 217.332 338.426 217.038 338.822 216.895L344.318 214.931C344.715 214.79 345.152 214.812 345.533 214.993C345.913 215.174 346.207 215.499 346.348 215.897C346.49 216.295 346.469 216.732 346.288 217.114C346.108 217.495 345.784 217.79 345.388 217.933Z" fill="#00ABD0"/>
<path d="M372.509 232.397L347.53 241.327C347.334 241.397 347.125 241.428 346.916 241.417C346.707 241.407 346.503 241.355 346.314 241.266C346.125 241.176 345.956 241.05 345.815 240.895C345.675 240.74 345.567 240.558 345.497 240.361C345.426 240.164 345.396 239.955 345.406 239.746C345.416 239.537 345.468 239.332 345.557 239.143C345.647 238.954 345.773 238.784 345.928 238.644C346.083 238.503 346.264 238.395 346.46 238.325L371.439 229.395C371.636 229.324 371.845 229.294 372.054 229.304C372.262 229.314 372.467 229.366 372.656 229.456C372.845 229.545 373.014 229.671 373.154 229.826C373.294 229.982 373.403 230.163 373.473 230.36C373.543 230.557 373.574 230.766 373.564 230.975C373.553 231.184 373.502 231.389 373.412 231.578C373.323 231.767 373.197 231.937 373.042 232.078C372.887 232.218 372.706 232.326 372.509 232.397Z" fill="#00ABD0"/>
<path d="M370.157 225.798L345.178 234.728C344.981 234.798 344.772 234.829 344.564 234.818C344.355 234.808 344.15 234.757 343.961 234.667C343.773 234.577 343.603 234.451 343.463 234.296C343.323 234.141 343.214 233.96 343.144 233.762C343.074 233.565 343.043 233.356 343.053 233.147C343.064 232.938 343.115 232.733 343.205 232.544C343.294 232.355 343.42 232.185 343.575 232.045C343.73 231.905 343.911 231.796 344.108 231.726L369.087 222.796C369.484 222.654 369.922 222.676 370.303 222.857C370.685 223.038 370.979 223.363 371.12 223.761C371.262 224.159 371.24 224.597 371.06 224.979C370.879 225.361 370.554 225.656 370.157 225.798Z" fill="#00ABD0"/>
<path d="M388.802 108.656C395.945 108.656 401.735 102.857 401.735 95.7033C401.735 88.5496 395.945 82.7504 388.802 82.7504C381.659 82.7504 375.869 88.5496 375.869 95.7033C375.869 102.857 381.659 108.656 388.802 108.656Z" fill="#FFB6B6"/>
<path d="M375.202 94.0129C375.889 94.4714 376.707 94.6903 377.531 94.636C377.721 93.6445 377.751 92.629 377.621 91.6279C378.111 92.5263 378.48 93.4859 378.718 94.4817C381.018 93.9788 380.916 93.2937 383.286 93.6522C383.937 93.7896 384.553 94.0597 385.095 94.4458C385.637 94.8318 386.094 95.3255 386.438 95.8961C386.781 96.4667 387.004 97.1019 387.092 97.7624C387.18 98.4229 387.131 99.0944 386.948 99.7351C387.45 98.6342 389.536 99.1347 389.888 100.394C390.255 101.72 389.447 103.06 388.674 104.198C385.914 108.265 393.052 115.763 390.292 119.83L389.908 120.29C392.321 119.032 394.604 117.539 396.724 115.831C396.361 114.224 396.299 112.564 396.539 110.935C396.838 112.277 397.572 113.483 398.626 114.365C406.435 108.232 415.829 99.4035 414.101 97.2609L408.845 87.981C403.321 78.2328 389.997 74.3168 381.742 81.8862C381.526 82.088 381.038 81.9543 380.82 82.1667C378.449 82.7822 375.413 83.8972 373.863 85.7958C372.32 87.6976 373.175 92.6423 375.202 94.0129Z" fill="#2F2E41"/>
<path d="M385.32 194.321C374.798 188.702 366.54 180.78 361.282 169.808C360.796 169.311 360.527 168.642 360.533 167.946C360.54 167.251 360.821 166.586 361.316 166.098L379.801 147.917C380.297 147.43 380.965 147.16 381.66 147.166C382.354 147.173 383.017 147.455 383.504 147.95L407.543 172.464C408.029 172.96 408.298 173.63 408.292 174.325C408.285 175.021 408.004 175.685 407.509 176.173L389.024 194.355C388.528 194.842 387.86 195.111 387.165 195.105C386.471 195.099 385.808 194.817 385.32 194.321Z" fill="#E6E6E6"/>
<path d="M379.478 185.523C373.73 183.391 368.774 177.117 364.024 169.763C363.569 169.298 363.316 168.671 363.322 168.02C363.328 167.368 363.592 166.746 364.055 166.289L379.942 150.663C380.406 150.208 381.032 149.955 381.682 149.961C382.333 149.967 382.954 150.231 383.41 150.695L404.801 172.509C405.256 172.974 405.508 173.601 405.502 174.252C405.496 174.903 405.233 175.526 404.769 175.982L394.928 185.662C392.859 187.693 390.071 188.818 387.174 188.792C384.278 188.766 381.51 187.59 379.478 185.523Z" fill="white"/>
<path d="M390.217 164.649L377.864 176.867C377.766 176.963 377.651 177.039 377.524 177.091C377.398 177.143 377.262 177.169 377.125 177.168C376.988 177.167 376.853 177.139 376.727 177.086C376.601 177.033 376.486 176.955 376.39 176.858C376.294 176.76 376.218 176.645 376.166 176.518C376.115 176.391 376.089 176.255 376.09 176.118C376.091 175.981 376.118 175.846 376.172 175.719C376.225 175.593 376.302 175.478 376.4 175.382L388.753 163.164C388.85 163.068 388.966 162.991 389.092 162.94C389.219 162.888 389.355 162.862 389.492 162.863C389.629 162.863 389.764 162.891 389.89 162.944C390.016 162.998 390.13 163.075 390.227 163.173C390.323 163.27 390.399 163.386 390.45 163.513C390.502 163.64 390.528 163.776 390.527 163.913C390.526 164.05 390.498 164.185 390.445 164.311C390.392 164.438 390.314 164.552 390.217 164.649Z" fill="#00ABD0"/>
<path d="M376.566 170.108L373.849 172.796C373.652 172.99 373.386 173.098 373.11 173.097C372.834 173.095 372.57 172.983 372.375 172.787C372.181 172.59 372.073 172.324 372.075 172.047C372.077 171.77 372.188 171.506 372.385 171.311L375.102 168.623C375.2 168.526 375.315 168.45 375.442 168.398C375.569 168.346 375.704 168.32 375.841 168.32C375.978 168.321 376.114 168.349 376.24 168.402C376.367 168.455 376.481 168.533 376.577 168.631C376.674 168.728 376.75 168.844 376.801 168.971C376.853 169.098 376.879 169.234 376.878 169.371C376.877 169.509 376.849 169.644 376.795 169.771C376.742 169.897 376.664 170.012 376.566 170.108Z" fill="#00ABD0"/>
<path d="M396.652 171.176L384.299 183.394C384.201 183.49 384.086 183.566 383.959 183.618C383.833 183.67 383.697 183.696 383.56 183.695C383.423 183.694 383.288 183.666 383.162 183.613C383.036 183.56 382.921 183.482 382.825 183.385C382.729 183.287 382.653 183.172 382.601 183.045C382.55 182.918 382.524 182.782 382.525 182.645C382.526 182.508 382.553 182.372 382.607 182.246C382.66 182.12 382.737 182.005 382.835 181.909L395.188 169.691C395.285 169.595 395.401 169.518 395.528 169.467C395.654 169.415 395.79 169.389 395.927 169.39C396.064 169.39 396.199 169.418 396.325 169.471C396.451 169.525 396.566 169.602 396.662 169.7C396.758 169.797 396.834 169.913 396.885 170.04C396.937 170.167 396.963 170.303 396.962 170.44C396.961 170.577 396.933 170.712 396.88 170.838C396.827 170.965 396.75 171.079 396.652 171.176Z" fill="#00ABD0"/>
<path d="M393.434 167.912L381.081 180.13C380.984 180.227 380.868 180.304 380.741 180.355C380.615 180.407 380.479 180.434 380.342 180.433C380.205 180.432 380.069 180.405 379.943 180.351C379.817 180.298 379.702 180.22 379.606 180.123C379.51 180.025 379.434 179.91 379.382 179.782C379.33 179.655 379.304 179.519 379.305 179.382C379.306 179.245 379.334 179.109 379.388 178.983C379.441 178.856 379.519 178.742 379.617 178.646L391.97 166.427C392.167 166.233 392.433 166.125 392.709 166.127C392.985 166.129 393.249 166.24 393.443 166.437C393.637 166.634 393.745 166.9 393.744 167.176C393.742 167.453 393.631 167.718 393.434 167.912Z" fill="#00ABD0"/>
<path d="M366.952 219.71C366.798 218.913 366.82 218.093 367.014 217.305C367.209 216.517 367.571 215.781 368.078 215.148C368.584 214.515 369.222 213.999 369.947 213.637C370.672 213.275 371.467 213.074 372.276 213.05L382.44 187.05L390.312 188.097L378.015 218.89C377.954 220.258 377.395 221.556 376.442 222.539C375.49 223.522 374.211 224.12 372.847 224.221C371.483 224.322 370.13 223.919 369.043 223.088C367.957 222.256 367.213 221.054 366.952 219.71Z" fill="#FFB6B6"/>
<path d="M410.168 127.474C410.168 127.474 418.214 138.323 415.049 144.527C411.884 150.732 409.881 156.789 407.8 158.746C405.719 160.702 399.703 179.648 397.415 180.647C395.127 181.645 397.549 184.02 394.511 186.184C391.473 188.348 390.517 188.555 390.724 189.513C390.931 190.471 385.133 203.676 385.133 203.676L375.685 200.183L395.804 130.095L410.168 127.474Z" fill="#00ABD0"/>
<path d="M561.088 353.013L55.0773 352.484C54.8367 352.483 54.6062 352.387 54.4362 352.216C54.2663 352.045 54.1709 351.814 54.1709 351.573C54.1709 351.332 54.2663 351.101 54.4362 350.93C54.6062 350.76 54.8367 350.663 55.0773 350.663L561.088 351.192C561.208 351.192 561.326 351.215 561.437 351.261C561.547 351.306 561.648 351.373 561.733 351.458C561.817 351.543 561.885 351.643 561.93 351.754C561.976 351.864 562 351.983 562 352.103C562 352.223 561.976 352.341 561.93 352.452C561.885 352.562 561.817 352.663 561.733 352.748C561.648 352.832 561.547 352.899 561.437 352.945C561.326 352.99 561.208 353.014 561.088 353.013Z" fill="#CACACA"/>
<path d="M190.099 152.46C184.107 142.135 181.251 131.045 182.549 118.944C182.397 118.266 182.52 117.554 182.891 116.966C183.262 116.378 183.851 115.962 184.528 115.808L209.801 110.098C210.479 109.945 211.189 110.068 211.776 110.44C212.363 110.811 212.779 111.401 212.933 112.079L220.482 145.595C220.634 146.274 220.512 146.985 220.141 147.573C219.77 148.161 219.181 148.577 218.504 148.731L193.23 154.442C192.553 154.594 191.843 154.471 191.256 154.099C190.669 153.728 190.253 153.138 190.099 152.46Z" fill="#E6E6E6"/>
<path d="M189.757 141.899C185.991 137.056 185.076 129.109 184.903 120.352C184.761 119.716 184.876 119.05 185.223 118.499C185.571 117.949 186.122 117.559 186.756 117.415L208.477 112.507C209.111 112.364 209.776 112.48 210.326 112.827C210.876 113.175 211.265 113.727 211.409 114.363L218.128 144.187C218.27 144.823 218.155 145.489 217.808 146.04C217.46 146.59 216.909 146.98 216.275 147.124L202.819 150.165C199.993 150.8 197.03 150.286 194.582 148.737C192.133 147.187 190.398 144.728 189.757 141.899Z" fill="white"/>
<path d="M198.206 125.436C198.648 124.925 199.244 124.57 199.904 124.426C200.564 124.282 201.253 124.356 201.868 124.636C202.483 124.963 202.975 125.481 203.27 126.112C203.566 126.743 203.649 127.454 203.507 128.136C203.269 129.713 202.446 131.15 202.371 132.765C202.304 133.472 202.427 134.185 202.728 134.829C203.029 135.472 203.497 136.023 204.082 136.425C204.979 136.97 205.902 135.619 205.001 135.071C203.518 134.169 204.017 132.186 204.447 130.833C204.984 129.145 205.544 127.423 204.879 125.683C204.585 124.954 204.113 124.311 203.507 123.813C202.901 123.314 202.179 122.975 201.408 122.828C200.637 122.681 199.842 122.729 199.095 122.969C198.348 123.209 197.673 123.633 197.131 124.202C196.424 124.966 197.489 126.21 198.206 125.436Z" fill="#00ABD0"/>
<path d="M205.405 141.141C206.307 141.141 207.039 140.409 207.039 139.505C207.039 138.601 206.307 137.868 205.405 137.868C204.502 137.868 203.771 138.601 203.771 139.505C203.771 140.409 204.502 141.141 205.405 141.141Z" fill="#00ABD0"/>
<path d="M45.6389 81.1763C39.6469 70.8507 36.7909 59.7614 38.089 47.6602C37.9369 46.9817 38.0598 46.2704 38.4307 45.6825C38.8016 45.0947 39.3902 44.6781 40.0674 44.5243L65.3409 38.8137C66.0184 38.6615 66.7286 38.7845 67.3156 39.156C67.9026 39.5275 68.3185 40.117 68.472 40.7952L76.022 74.3112C76.174 74.9898 76.0511 75.701 75.6802 76.2889C75.3094 76.8768 74.7208 77.2933 74.0436 77.4471L48.7701 83.1578C48.0925 83.31 47.3824 83.1869 46.7954 82.8155C46.2084 82.444 45.7925 81.8545 45.6389 81.1763Z" fill="#E6E6E6"/>
<path d="M45.2977 70.615C41.5318 65.7722 40.6162 57.8248 40.4439 49.0678C40.3015 48.4323 40.4166 47.7662 40.7639 47.2156C41.1113 46.6651 41.6625 46.2749 42.2967 46.1309L64.0172 41.2232C64.6517 41.0805 65.3168 41.1958 65.8666 41.5437C66.4164 41.8915 66.8059 42.4436 66.9497 43.0788L73.6682 72.9035C73.8106 73.539 73.6954 74.2051 73.348 74.7557C73.0007 75.3063 72.4494 75.6964 71.8152 75.8405L58.3598 78.8807C55.5335 79.516 52.571 79.0025 50.1222 77.4529C47.6734 75.9033 45.9384 73.4442 45.2977 70.615Z" fill="white"/>
<path d="M56.6499 72.8883C57.9149 72.8883 58.9404 71.8612 58.9404 70.5943C58.9404 69.3274 57.9149 68.3003 56.6499 68.3003C55.3849 68.3003 54.3594 69.3274 54.3594 70.5943C54.3594 71.8612 55.3849 72.8883 56.6499 72.8883Z" fill="#00ABD0"/>
<path d="M59.3867 48.8069C58.5051 47.7716 56.892 47.9362 55.5574 48.1909C54.1708 48.3927 52.8172 48.7787 51.5324 49.3386C50.8908 49.6221 50.3116 50.0301 49.8282 50.539C49.3448 51.0479 48.9668 51.6476 48.716 52.3035C48.1829 53.9408 48.7634 55.72 49.4597 57.2945C50.8003 60.3231 52.5798 63.137 54.7407 65.6453L55.8326 66.1517C57.5312 63.9844 58.7798 61.4987 59.5046 58.8408C60.2294 56.1829 60.416 53.4067 60.0533 50.6755C60.0118 50.002 59.7807 49.3542 59.3867 48.8069Z" fill="#00ABD0"/>
</svg>
