<svg width="542" height="326" viewBox="0 0 542 326" fill="none" xmlns="http://www.w3.org/2000/svg">
<g clip-path="url(#clip0_12_786)">
<path d="M542 254.398C542.011 256.581 541.154 258.679 539.617 260.231C538.079 261.783 535.988 262.662 533.802 262.673H173.121C170.935 262.662 168.844 261.783 167.306 260.232C165.769 258.68 164.912 256.581 164.923 254.398V8.27545C164.912 6.09209 165.769 3.9936 167.306 2.44165C168.843 0.889705 170.935 0.0114166 173.121 0H533.802C535.988 0.0113572 538.079 0.889593 539.617 2.4415C541.154 3.9934 542.011 6.09185 542 8.27522V254.398Z" fill="#E6E6E6"/>
<path d="M537.745 250.367C537.745 252.489 536.901 254.525 535.399 256.025C533.897 257.526 531.86 258.369 529.736 258.369H177.435C175.31 258.369 173.273 257.526 171.771 256.025C170.269 254.525 169.425 252.489 169.425 250.367V12.4185C169.425 10.2963 170.269 8.26102 171.771 6.7604C173.273 5.25979 175.31 4.41675 177.435 4.41675H529.752C531.873 4.42101 533.906 5.26593 535.405 6.76609C536.904 8.26624 537.745 10.2991 537.745 12.4185V250.367Z" fill="white"/>
<path d="M188.254 14.7477H519.292C520.553 14.7477 521.762 15.2481 522.654 16.1388C523.545 17.0295 524.046 18.2376 524.046 19.4972V242.365C524.046 243.625 523.545 244.833 522.654 245.724C521.762 246.615 520.553 247.115 519.292 247.115H188.254C187.629 247.115 187.011 246.992 186.434 246.753C185.858 246.515 185.333 246.165 184.892 245.724C184.451 245.283 184.1 244.759 183.861 244.183C183.622 243.607 183.5 242.989 183.5 242.365V19.4972C183.5 18.8735 183.622 18.2559 183.861 17.6796C184.1 17.1034 184.451 16.5798 184.892 16.1388C185.333 15.6977 185.858 15.3479 186.434 15.1092C187.011 14.8705 187.629 14.7477 188.254 14.7477Z" fill="#E6E6E6"/>
<path d="M192.444 20.0929H514.742C516.003 20.0929 517.212 20.5933 518.104 21.484C518.995 22.3747 519.496 23.5828 519.496 24.8424V235.818C519.496 237.078 518.995 238.286 518.104 239.176C517.212 240.067 516.003 240.568 514.742 240.568H192.444C191.183 240.568 189.974 240.067 189.082 239.176C188.191 238.286 187.69 237.078 187.69 235.818V24.8424C187.69 23.5828 188.191 22.3747 189.082 21.484C189.974 20.5933 191.183 20.0929 192.444 20.0929Z" fill="white"/>
<path d="M458.733 283.914C458.744 286.098 457.887 288.196 456.35 289.748C454.812 291.3 452.721 292.178 450.535 292.19H89.8535C88.7714 292.184 87.7009 291.966 86.7032 291.547C85.7056 291.128 84.8003 290.517 84.0391 289.748C83.2778 288.98 82.6756 288.069 82.2666 287.068C81.8577 286.067 81.6501 284.996 81.6558 283.915V37.7923C81.6443 35.6089 82.5016 33.5105 84.0389 31.9585C85.5763 30.4066 87.6678 29.5283 89.8533 29.5168H450.535C452.72 29.5282 454.812 30.4064 456.349 31.9583C457.887 33.5102 458.744 35.6087 458.733 37.7921V283.914Z" fill="#E6E6E6"/>
<path d="M454.478 279.884C454.478 282.006 453.634 284.041 452.132 285.542C450.63 287.043 448.593 287.886 446.468 287.886H94.1672C92.0429 287.886 90.0056 287.043 88.5035 285.542C87.0014 284.041 86.1575 282.006 86.1575 279.884V41.9353C86.1575 39.8131 87.0014 37.7779 88.5035 36.2772C90.0056 34.7766 92.0429 33.9336 94.1672 33.9336H446.484C448.606 33.9379 450.639 34.7828 452.138 36.2829C453.636 37.7831 454.478 39.8159 454.478 41.9353V279.884Z" fill="white"/>
<path d="M104.987 44.2645H436.025C437.286 44.2645 438.495 44.7649 439.387 45.6556C440.278 46.5463 440.779 47.7544 440.779 49.014V271.882C440.779 273.142 440.278 274.35 439.387 275.241C438.495 276.131 437.286 276.632 436.025 276.632H104.987C103.726 276.632 102.516 276.131 101.625 275.241C100.733 274.35 100.232 273.142 100.232 271.882V49.014C100.232 47.7544 100.733 46.5463 101.625 45.6556C102.516 44.7649 103.726 44.2645 104.987 44.2645Z" fill="#E6E6E6"/>
<path d="M109.177 49.6097H431.475C432.736 49.6097 433.945 50.1101 434.837 51.0008C435.728 51.8916 436.229 53.0996 436.229 54.3593V265.335C436.229 266.595 435.728 267.803 434.837 268.693C433.945 269.584 432.736 270.084 431.475 270.084H109.177C107.916 270.084 106.707 269.584 105.815 268.693C104.924 267.803 104.423 266.595 104.423 265.335V54.3593C104.423 53.0996 104.924 51.8916 105.815 51.0008C106.707 50.1101 107.916 49.6097 109.177 49.6097Z" fill="white"/>
<path d="M377.077 317.725C377.089 319.908 376.231 322.006 374.694 323.558C373.157 325.11 371.065 325.989 368.88 326H8.19791C6.01235 325.989 3.92082 325.11 2.38344 323.559C0.846056 322.007 -0.0112507 319.908 0.000112811 317.725V71.6025C-0.0113152 69.4191 0.845931 67.3206 2.38327 65.7687C3.92061 64.2167 6.01212 63.3384 8.19767 63.327H368.879C369.961 63.3326 371.032 63.5512 372.03 63.9701C373.027 64.389 373.933 65.0001 374.694 65.7685C375.455 66.5369 376.057 67.4476 376.466 68.4486C376.875 69.4495 377.083 70.5212 377.077 71.6023V317.725Z" fill="#E6E6E6"/>
<path d="M372.822 313.694C372.822 315.816 371.979 317.852 370.476 319.352C368.974 320.853 366.937 321.696 364.813 321.696H12.5117C10.3874 321.696 8.35009 320.853 6.84796 319.352C5.34584 317.852 4.50195 315.816 4.50195 313.694V75.7455C4.50195 73.6233 5.34584 71.588 6.84796 70.0874C8.35009 68.5868 10.3874 67.7438 12.5117 67.7438H364.829C366.95 67.748 368.984 68.593 370.482 70.0931C371.981 71.5933 372.822 73.6261 372.822 75.7455V313.694Z" fill="white"/>
<path d="M23.3311 78.0747H354.369C355.63 78.0747 356.84 78.5751 357.731 79.4658C358.623 80.3565 359.124 81.5646 359.124 82.8242V305.692C359.124 306.952 358.623 308.16 357.731 309.051C356.84 309.942 355.63 310.442 354.369 310.442H23.3311C22.0702 310.442 20.8609 309.942 19.9693 309.051C19.0777 308.16 18.5768 306.952 18.5768 305.692V82.8242C18.5768 81.5646 19.0777 80.3565 19.9693 79.4658C20.8609 78.5751 22.0702 78.0747 23.3311 78.0747Z" fill="#E6E6E6"/>
<path d="M27.5213 83.4199H349.819C351.08 83.4199 352.289 83.9203 353.181 84.811C354.073 85.7017 354.573 86.9098 354.573 88.1695V299.145C354.573 300.405 354.073 301.613 353.181 302.503C352.289 303.394 351.08 303.895 349.819 303.895H27.5213C26.2603 303.895 25.0511 303.394 24.1595 302.503C23.2679 301.613 22.767 300.405 22.767 299.145V88.1695C22.767 86.9098 23.2679 85.7017 24.1595 84.811C25.0511 83.9203 26.2603 83.4199 27.5213 83.4199Z" fill="white"/>
<path d="M265.704 129.122V275.096C265.703 275.95 265.364 276.769 264.759 277.373C264.155 277.976 263.335 278.316 262.481 278.316H109.377C108.522 278.316 107.702 277.976 107.098 277.373C106.494 276.769 106.154 275.95 106.153 275.096V111.949C106.154 111.095 106.494 110.276 107.098 109.673C107.702 109.069 108.522 108.729 109.377 108.729H243.141L265.704 129.122Z" fill="#00ABD0"/>
<path d="M133.248 144.255C132.719 144.264 132.215 144.48 131.844 144.857C131.473 145.234 131.265 145.742 131.265 146.27C131.265 146.799 131.473 147.306 131.844 147.683C132.215 148.06 132.719 148.276 133.248 148.285H186.434C186.7 148.29 186.964 148.243 187.211 148.147C187.458 148.05 187.684 147.905 187.875 147.721C188.067 147.537 188.22 147.317 188.326 147.074C188.432 146.83 188.488 146.569 188.493 146.303C188.497 146.038 188.449 145.774 188.351 145.528C188.253 145.281 188.107 145.056 187.922 144.866C187.737 144.675 187.516 144.524 187.272 144.419C187.028 144.314 186.766 144.258 186.5 144.255C186.478 144.255 186.456 144.255 186.434 144.255H133.248Z" fill="white"/>
<path d="M133.248 163.156C132.719 163.165 132.215 163.381 131.844 163.758C131.473 164.135 131.265 164.642 131.265 165.171C131.265 165.7 131.473 166.207 131.844 166.584C132.215 166.961 132.719 167.177 133.248 167.186H238.543C239.077 167.193 239.591 166.988 239.974 166.616C240.357 166.245 240.576 165.737 240.585 165.204C240.594 164.671 240.391 164.156 240.021 163.772C239.65 163.389 239.143 163.167 238.609 163.156C238.587 163.156 238.565 163.156 238.543 163.156H133.248Z" fill="white"/>
<path d="M133.248 182.057C132.719 182.066 132.215 182.282 131.844 182.659C131.473 183.036 131.265 183.544 131.265 184.072C131.265 184.601 131.473 185.108 131.844 185.485C132.215 185.862 132.719 186.078 133.248 186.087H238.543C238.809 186.092 239.073 186.045 239.32 185.949C239.567 185.852 239.793 185.707 239.984 185.523C240.175 185.339 240.328 185.119 240.434 184.876C240.54 184.632 240.597 184.371 240.601 184.105C240.605 183.84 240.557 183.576 240.46 183.33C240.362 183.083 240.216 182.858 240.031 182.668C239.846 182.478 239.625 182.326 239.381 182.221C239.137 182.116 238.875 182.06 238.609 182.057C238.587 182.057 238.565 182.057 238.543 182.057H133.248Z" fill="white"/>
<path d="M133.248 200.958C132.719 200.967 132.215 201.183 131.844 201.56C131.473 201.937 131.265 202.445 131.265 202.973C131.265 203.502 131.473 204.009 131.844 204.386C132.215 204.763 132.719 204.979 133.248 204.988H238.543C238.809 204.993 239.073 204.946 239.32 204.85C239.568 204.753 239.793 204.608 239.985 204.424C240.176 204.24 240.329 204.02 240.435 203.777C240.541 203.533 240.597 203.272 240.602 203.006C240.606 202.741 240.558 202.477 240.46 202.231C240.362 201.984 240.217 201.759 240.032 201.569C239.846 201.378 239.625 201.227 239.381 201.122C239.137 201.017 238.875 200.961 238.609 200.958C238.587 200.958 238.565 200.958 238.543 200.958H133.248Z" fill="white"/>
<path d="M133.248 219.859C132.719 219.868 132.215 220.084 131.844 220.461C131.473 220.838 131.265 221.346 131.265 221.874C131.265 222.403 131.473 222.91 131.844 223.287C132.215 223.664 132.719 223.88 133.248 223.889H238.543C238.809 223.894 239.073 223.848 239.32 223.751C239.568 223.654 239.793 223.509 239.985 223.325C240.176 223.141 240.329 222.921 240.435 222.678C240.541 222.434 240.597 222.173 240.602 221.907C240.606 221.642 240.558 221.378 240.46 221.132C240.362 220.885 240.217 220.66 240.032 220.47C239.846 220.279 239.625 220.128 239.381 220.023C239.137 219.918 238.875 219.862 238.609 219.859C238.587 219.859 238.565 219.859 238.543 219.859H133.248Z" fill="white"/>
<path d="M133.248 238.76C132.719 238.769 132.215 238.985 131.844 239.362C131.473 239.739 131.265 240.246 131.265 240.775C131.265 241.304 131.473 241.811 131.844 242.188C132.215 242.565 132.719 242.781 133.248 242.79H238.543C238.809 242.795 239.073 242.748 239.32 242.652C239.568 242.555 239.793 242.41 239.985 242.226C240.176 242.042 240.329 241.822 240.435 241.579C240.541 241.335 240.597 241.074 240.602 240.808C240.606 240.543 240.558 240.279 240.46 240.033C240.362 239.786 240.217 239.561 240.032 239.371C239.846 239.18 239.625 239.028 239.381 238.924C239.137 238.819 238.875 238.763 238.609 238.76C238.587 238.76 238.565 238.76 238.543 238.76H133.248Z" fill="white"/>
<path d="M265.704 129.122H245.29C244.72 129.122 244.174 128.896 243.771 128.493C243.368 128.091 243.141 127.545 243.141 126.976V108.729L265.704 129.122Z" fill="#00ABD0"/>
<path opacity="0.2" d="M265.704 129.122H245.29C244.72 129.122 244.174 128.896 243.771 128.493C243.368 128.091 243.141 127.545 243.141 126.976V108.729L265.704 129.122Z" fill="black"/>
</g>
<defs>
<clipPath id="clip0_12_786">
<rect width="542" height="326" fill="white"/>
</clipPath>
</defs>
</svg>
